<svg width="63" height="78" viewBox="0 0 63 78" fill="none" xmlns="http://www.w3.org/2000/svg">
<path d="M51.9324 24.6132C51.9324 29.4268 51.9324 38.6164 51.9324 38.6164L42.9225 30.7396C42.9225 30.7396 44.1511 22.4252 41.2843 18.4868C38.4175 14.5484 34.3221 13.2356 30.6363 13.2356C26.9505 13.2356 22.0359 15.4236 19.1692 20.2372C16.3024 25.0508 18.5708 28.2733 19.5787 29.8644C20.5866 31.4554 35.9603 45.618 35.9603 45.618C35.9603 45.618 40.0557 48.6812 39.6462 51.7444C39.2366 54.8075 35.9603 57.8707 35.9603 57.8707C35.9603 57.8707 24.2727 46.4932 16.7119 39.4916C9.15118 32.49 7.94185 25.4884 10.7501 18.4868C13.5584 11.4852 19.1692 8.42207 22.0359 7.10926C24.9027 5.79645 31.0458 3.95092 39.6462 7.54686C48.2465 11.1428 51.9324 19.7996 51.9324 24.6132Z" fill="#FFFFFF"/>
<path d="M10.7503 53.217C10.7503 48.4436 10.7502 39.3307 10.7502 39.3307L19.2637 48.0097C19.2637 48.0097 18.5315 55.3868 21.3983 59.2923C24.265 63.1978 28.3604 64.4996 32.0463 64.4996C35.7321 64.4996 40.6466 62.3299 43.5134 57.5565C46.3801 52.7831 44.1117 49.5874 43.1038 48.0097C42.0959 46.4319 26.7223 32.3876 26.7223 32.3876C26.7223 32.3876 22.6269 29.35 23.0364 26.3124C23.446 23.2748 26.7223 20.2372 26.7223 20.2372C26.7223 20.2372 38.4099 31.5197 45.9706 38.4628C53.5313 45.406 54.7407 52.3491 51.9324 59.2923C49.1241 66.2354 43.5134 69.273 40.6466 70.5748C37.7798 71.8767 31.6368 73.7068 23.0364 70.1409C14.4361 66.5749 10.7503 57.9904 10.7503 53.217Z" fill="#FFFFFF"/>
</svg>
