<svg width="623" height="189" viewBox="0 0 623 189" fill="none" xmlns="http://www.w3.org/2000/svg">
<path d="M468.465 0.00585938C478.191 0.252413 486 8.21429 486 18V30H548V18C548 8.21429 555.809 0.252412 565.535 0.00585938L566 0H605L605.465 0.00585938C615.191 0.252413 623 8.21429 623 18V45C623 54.9411 614.941 63 605 63H566C556.214 63 548.252 55.1911 548.006 45.4648L548 45V32H486V45C486 54.9411 477.941 63 468 63H429C419.214 63 411.252 55.1911 411.006 45.4648L411 45V30.875C397.352 37.9672 387 51.2962 377.578 63.1797C372.79 69.2182 368.228 74.8976 363.625 79.0605C359.026 83.22 354.243 86 349 86V105C354.334 105 359.249 108.709 363.931 113.791C368.643 118.905 373.365 125.696 378.241 132.28C383.148 138.906 388.227 145.349 393.728 149.952C399.107 154.454 404.78 157.101 411 156.542V144C411 134.214 418.809 126.252 428.535 126.006L429 126H468L468.465 126.006C478.191 126.252 486 134.214 486 144V156H548V143C548 133.214 555.809 125.252 565.535 125.006L566 125H605L605.465 125.006C615.191 125.252 623 133.214 623 143V170C623 179.941 614.941 188 605 188H566C556.214 188 548.252 180.191 548.006 170.465L548 170V158H486V171C486 180.941 477.941 189 468 189H429C419.214 189 411.252 181.191 411.006 171.465L411 171V158.552C404.121 159.111 397.992 156.128 392.444 151.485C386.742 146.713 381.539 140.094 376.634 133.47C371.697 126.804 367.076 120.157 362.46 115.146C357.814 110.104 353.416 107 349 107V107.5C349 117.441 340.941 125.5 331 125.5H292C282.214 125.5 274.252 117.691 274.006 107.965L274 107.5V94H212V107C212 116.941 203.941 125 194 125H155C145.214 125 137.252 117.191 137.006 107.465L137 107V94H75V107C75 116.941 66.9411 125 57 125H18C8.21429 125 0.252413 117.191 0.00585938 107.465L0 107V80C0 70.2143 7.80887 62.2524 17.5352 62.0059L18 62H57L57.4648 62.0059C67.1911 62.2524 75 70.2143 75 80V92H137V80C137 70.2143 144.809 62.2524 154.535 62.0059L155 62H194L194.465 62.0059C204.191 62.2524 212 70.2143 212 80V92H274V80.5C274 70.7143 281.809 62.7524 291.535 62.5059L292 62.5H331L331.465 62.5059C341.191 62.7524 349 70.7143 349 80.5V84C353.507 84 357.822 81.6121 362.283 77.5771C366.741 73.5455 371.2 68.0037 376.011 61.9365C385.557 49.8968 396.43 35.8369 411 28.6318V18C411 8.21429 418.809 0.252412 428.535 0.00585938L429 0H468L468.465 0.00585938ZM429 128C420.163 128 413 135.163 413 144V171C413 179.837 420.163 187 429 187H468C476.837 187 484 179.837 484 171V144C484 135.163 476.837 128 468 128H429ZM566 127C557.163 127 550 134.163 550 143V170C550 178.837 557.163 186 566 186H605C613.837 186 621 178.837 621 170V143C621 134.163 613.837 127 605 127H566ZM292 64.5C283.163 64.5 276 71.6634 276 80.5V107.5C276 116.337 283.163 123.5 292 123.5H331C339.837 123.5 347 116.337 347 107.5V80.5C347 71.6634 339.837 64.5 331 64.5H292ZM18 64C9.16344 64 2 71.1634 2 80V107C2 115.837 9.16345 123 18 123H57C65.8366 123 73 115.837 73 107V80C73 71.1634 65.8366 64 57 64H18ZM155 64C146.163 64 139 71.1634 139 80V107C139 115.837 146.163 123 155 123H194C202.837 123 210 115.837 210 107V80C210 71.1634 202.837 64 194 64H155ZM429 2C420.163 2 413 9.16345 413 18V45C413 53.8366 420.163 61 429 61H468C476.837 61 484 53.8366 484 45V18C484 9.16345 476.837 2 468 2H429ZM566 2C557.163 2 550 9.16345 550 18V45C550 53.8366 557.163 61 566 61H605C613.837 61 621 53.8366 621 45V18C621 9.16345 613.837 2 605 2H566Z" fill="white"/>
</svg>
