<?xml version="1.0" encoding="UTF-8"?>
<svg version="1.1" xmlns="http://www.w3.org/2000/svg" width="173" height="281">
<path d="M0 0 C16.38896618 13.49797459 26.57230989 31.60273452 29.09326172 52.74511719 C30.6490041 73.06700202 27.61994687 93.56566589 14.02075195 109.5480957 C13.11171832 110.53691448 12.19671307 111.5202657 11.27685547 112.49902344 C10.7651329 113.04820435 10.25341034 113.59738525 9.72618103 114.16320801 C2.16516022 122.20999989 -5.70361201 129.96003383 -13.53173828 137.74511719 C-15.12116768 139.3295152 -16.71036176 140.91414931 -18.29931641 142.49902344 C-21.19948298 145.3911036 -24.10095127 148.28186256 -27.00415039 151.17089844 C-29.8717643 154.02474975 -32.7349527 156.88292287 -35.59423828 159.74511719 C-43.92757161 168.07845052 -52.26090495 176.41178385 -60.59423828 184.74511719 C-61.45146484 185.60621094 -62.30869141 186.46730469 -63.19189453 187.35449219 C-72.0978129 196.21696705 -72.0978129 196.21696705 -76.78173828 197.87011719 C-80.33635068 197.71213441 -81.8655233 197.03133785 -84.59423828 194.74511719 C-88.5099937 188.31209043 -89.56423092 181.77592647 -88.13330078 174.35449219 C-86.48878833 168.04730325 -83.78416375 163.67196422 -79.59423828 158.74511719 C-79.12244141 158.14183594 -78.65064453 157.53855469 -78.16455078 156.91699219 C-77.03016644 155.48055284 -75.81867874 154.10560658 -74.59423828 152.74511719 C-73.93423828 152.74511719 -73.27423828 152.74511719 -72.59423828 152.74511719 C-72.59423828 152.08511719 -72.59423828 151.42511719 -72.59423828 150.74511719 C-70.21923828 148.12011719 -70.21923828 148.12011719 -67.59423828 145.74511719 C-66.93423828 145.74511719 -66.27423828 145.74511719 -65.59423828 145.74511719 C-65.59423828 145.08511719 -65.59423828 144.42511719 -65.59423828 143.74511719 C-64.93423828 143.74511719 -64.27423828 143.74511719 -63.59423828 143.74511719 C-63.59423828 143.08511719 -63.59423828 142.42511719 -63.59423828 141.74511719 C-61.21923828 139.12011719 -61.21923828 139.12011719 -58.59423828 136.74511719 C-57.93423828 136.74511719 -57.27423828 136.74511719 -56.59423828 136.74511719 C-56.59423828 136.08511719 -56.59423828 135.42511719 -56.59423828 134.74511719 C-55.21923828 133.12011719 -55.21923828 133.12011719 -53.59423828 131.74511719 C-52.93423828 131.74511719 -52.27423828 131.74511719 -51.59423828 131.74511719 C-51.59423828 131.08511719 -51.59423828 130.42511719 -51.59423828 129.74511719 C-50.93423828 129.74511719 -50.27423828 129.74511719 -49.59423828 129.74511719 C-49.32998047 129.14183594 -49.06572266 128.53855469 -48.79345703 127.91699219 C-47.53668754 125.64088849 -46.43983666 124.57693286 -44.40673828 122.99511719 C-40.93478829 120.14652356 -38.06523962 117.00399026 -35.17236328 113.57714844 C-33.70374309 111.87224034 -32.27791307 110.23914729 -30.59423828 108.74511719 C-29.93423828 108.74511719 -29.27423828 108.74511719 -28.59423828 108.74511719 C-28.38154297 108.19855469 -28.16884766 107.65199219 -27.94970703 107.08886719 C-26.12011965 103.92531551 -23.55192546 101.71263952 -20.90673828 99.24511719 C-10.79515271 89.43595679 -4.68263554 78.06171673 -4.21923828 63.80761719 C-4.63603994 49.81757894 -9.67971157 39.14173511 -19.14111328 29.03808594 C-30.01734611 18.87192563 -43.78538317 15.20213308 -58.31689453 15.46777344 C-71.6347967 16.07054271 -83.70139865 21.82894919 -92.78173828 31.49511719 C-103.15076822 44.36701642 -104.90581048 58.69684511 -105.39892578 74.60839844 C-105.74999098 85.29659764 -107.31212562 94.28925082 -114.96923828 102.19824219 C-124.94031189 111.39774462 -124.94031189 111.39774462 -129.83251953 112.03808594 C-131.75309245 111.94042969 -133.67366536 111.84277344 -135.59423828 111.74511719 C-138.33189227 106.2743335 -139.02932593 102.0548863 -138.95751953 95.97949219 C-138.95801804 95.14661682 -138.95851654 94.31374146 -138.95903015 93.45562744 C-138.95669836 91.69402684 -138.94702286 89.93242234 -138.93041992 88.17089844 C-138.90717333 85.54427339 -138.90982334 82.9186917 -138.91650391 80.29199219 C-138.90266492 71.63998055 -138.5870153 63.07375183 -137.70751953 54.46386719 C-137.63132889 53.70700623 -137.55513824 52.95014526 -137.47663879 52.17034912 C-135.0034832 30.33510652 -124.29976796 12.68404204 -107.90673828 -1.50488281 C-76.91185402 -25.04530124 -30.45811449 -23.97468736 0 0 Z " fill="#FEB208" transform="translate(140.59423828125,24.2548828125)"/>
<path d="M0 0 C3.74014465 2.90900139 5.55334038 5.54480047 7 10 C7.82896782 18.40810213 7.79876305 26.31892622 2.32119751 33.06872559 C-3.90886049 39.95864144 -10.42888635 46.52073717 -17.03456497 53.04859924 C-19.02313689 55.01480045 -21.00742365 56.98523657 -22.99057007 58.95690918 C-28.62219566 64.55526157 -34.25809347 70.14925784 -39.90429688 75.73291016 C-43.37715091 79.16788961 -46.84245681 82.61033511 -50.30320358 86.05751038 C-51.61199436 87.35831387 -52.9235423 88.65634999 -54.23802567 89.95140076 C-66.98102891 102.50913229 -78.34609958 115.08225767 -79.0625 133.91015625 C-78.82530249 145.63660791 -74.37689598 155.83622778 -66.3125 164.375 C-55.58231396 174.41239625 -41.88188059 179.47267548 -27.2578125 179.2734375 C-15.88219203 178.31864921 -6.028122 175.10111109 3 168 C3.98033203 167.24976563 3.98033203 167.24976563 4.98046875 166.484375 C13.57272362 158.97326478 18.37014281 146.51821658 19.19799805 135.32226562 C19.31125989 132.44396458 19.37913476 129.5674079 19.4375 126.6875 C19.90604277 112.93374917 21.12849649 102.80097033 31.1796875 92.83984375 C35.88280293 88.47718953 40.22074325 84.70311754 46.6875 83.5 C49 84 49 84 50.61962891 85.82495117 C52.69608397 90.60109163 52.42792656 95.14643129 52.3984375 100.30078125 C52.40274277 101.96454048 52.40274277 101.96454048 52.40713501 103.66191101 C52.40917575 106.01297515 52.40364526 108.36405627 52.39111328 110.71508789 C52.37522784 114.26163284 52.39087504 117.80700874 52.41015625 121.35351562 C52.4345226 146.85531857 48.54898592 169.06227071 30.1171875 188.0390625 C12.85789513 204.94544921 -8.67231156 211.66272612 -32.41577148 211.47265625 C-51.19195666 210.96907516 -68.37809061 204.97141222 -83 193 C-84.28003906 191.98292969 -84.28003906 191.98292969 -85.5859375 190.9453125 C-99.77537777 179.02618268 -109.30920999 161.50675593 -111 143 C-111.21048253 139.22798635 -111.29028476 135.46504238 -111.3125 131.6875 C-111.31813965 130.7807251 -111.3237793 129.8739502 -111.32958984 128.93969727 C-111.13200704 110.57286875 -103.70857713 94.70662288 -91.25 81.40625 C-88.52630986 78.49341471 -85.96733829 75.45738339 -83.41015625 72.3984375 C-82 71 -82 71 -80 71 C-80 70.34 -80 69.68 -80 69 C-77.625 66.375 -77.625 66.375 -75 64 C-74.34 64 -73.68 64 -73 64 C-73 63.34 -73 62.68 -73 62 C-72.34 62 -71.68 62 -71 62 C-70.731875 61.360625 -70.46375 60.72125 -70.1875 60.0625 C-69 58 -69 58 -66 57 C-66 56.34 -66 55.68 -66 55 C-64.63671875 53.66015625 -64.63671875 53.66015625 -62.6875 52.0625 C-57.14890467 47.35274376 -52.09950889 42.17230949 -47 37 C-41.38868907 31.30858198 -35.80319449 25.64441764 -29.69287109 20.48022461 C-27.90855523 18.92004188 -26.2708778 17.26724712 -24.625 15.5625 C-22 13 -22 13 -20 13 C-20 12.34 -20 11.68 -20 11 C-18.13113484 9.11722269 -16.11652185 7.46030959 -14.0859375 5.75390625 C-12.48905429 4.41120857 -10.94918462 3.00044391 -9.4375 1.5625 C-6.03280512 -0.61999672 -3.96569988 -0.63734462 0 0 Z " fill="#FEB208" transform="translate(114,67)"/>
<path d="M0 0 C-3.63 1.98 -7.26 3.96 -11 6 C-10.01 6 -9.02 6 -8 6 C2.66666667 6 13.33333333 6 24 6 C23.67 7.98 23.34 9.96 23 12 C21.10109009 11.99045288 21.10109009 11.99045288 19.16381836 11.98071289 C14.44638035 11.9662331 9.73015383 11.99769786 5.01293945 12.04272461 C2.97522106 12.05582735 0.93738366 12.05663257 -1.1003418 12.04467773 C-4.03812727 12.02961217 -6.9726385 12.05942938 -9.91015625 12.09765625 C-11.26682152 12.07627342 -11.26682152 12.07627342 -12.65089417 12.05445862 C-17.79102691 12.1709113 -20.42321214 12.86850573 -24.13061523 16.55639648 C-25.11180727 17.68319794 -26.0777054 18.8245035 -27 20 C-26.67 20.99 -26.34 21.98 -26 23 C-23.36 23 -20.72 23 -18 23 C-17.67 23.99 -17.34 24.98 -17 26 C-20.63 26 -24.26 26 -28 26 C-28.33 26.66 -28.66 27.32 -29 28 C-29 27.34 -29 26.68 -29 26 C-29.66 26 -30.32 26 -31 26 C-31.33 26.99 -31.66 27.98 -32 29 C-32.66 29 -33.32 29 -34 29 C-33.93296875 29.71671875 -33.8659375 30.4334375 -33.796875 31.171875 C-34.05169555 34.71976113 -35.25836323 36.32112239 -37.25 39.25 C-41.83773787 46.69460507 -43.37638466 54.4886252 -45 63 C-45.33 63 -45.66 63 -46 63 C-46.57841828 46.67775908 -38.54084609 29.52603831 -27.625 17.5625 C-8.26242653 -2.75414218 -8.26242653 -2.75414218 0 0 Z " fill="#FEB314" transform="translate(50,15)"/>
<path d="M0 0 C8.79095999 3.08152868 19.28024721 11.44224431 23.4375 19.9375 C23.623125 20.618125 23.80875 21.29875 24 22 C22.02 22 20.04 22 18 22 C17.67 22.66 17.34 23.32 17 24 C17 23.34 17 22.68 17 22 C16.01 22 15.02 22 14 22 C14.33 21.01 14.66 20.02 15 19 C15.99 19 16.98 19 18 19 C17.23931934 15.05537328 15.80273962 12.99007592 12.92089844 10.25292969 C9.28399801 7.88071654 5.34920386 8.11227649 1.125 8.125 C-0.19371094 8.0940625 -0.19371094 8.0940625 -1.5390625 8.0625 C-3.69230036 8.01569048 -5.84625763 8.00426484 -8 8 C-8 7.01 -8 6.02 -8 5 C-8.66 5 -9.32 5 -10 5 C-10 4.01 -10 3.02 -10 2 C-6.7 1.67 -3.4 1.34 0 1 C0 0.67 0 0.34 0 0 Z " fill="#FDB116" transform="translate(131,19)"/>
<path d="M0 0 C2.50049816 2.50049816 2.25639102 3.29298554 2.2746582 6.74658203 C2.28419022 7.735867 2.29372223 8.72515198 2.30354309 9.74441528 C2.30263168 10.82133636 2.30172028 11.89825745 2.30078125 13.0078125 C2.30506638 14.12123016 2.3093515 15.23464783 2.31376648 16.38180542 C2.31952391 18.75078655 2.31999972 21.11978536 2.31567383 23.48876953 C2.31255512 27.06184572 2.33581044 30.6340601 2.36132812 34.20703125 C2.40994265 51.31424913 1.51299771 66.32070043 -6 82 C-6.33 82 -6.66 82 -7 82 C-7 80.35 -7 78.7 -7 77 C-6.34 77 -5.68 77 -5 77 C-4.01 71.06 -4.01 71.06 -3 65 C-2.34 65 -1.68 65 -1 65 C-0.67 61.37 -0.34 57.74 0 54 C-1.32 53.67 -2.64 53.34 -4 53 C-3.51391769 52.44213806 -3.02783539 51.88427612 -2.52702332 51.30950928 C-0.75253199 48.62572303 -0.60867134 47.23289568 -0.56762695 44.04785156 C-0.54783279 43.06713684 -0.52803864 42.08642212 -0.50764465 41.07598877 C-0.49805977 39.4992337 -0.49805977 39.4992337 -0.48828125 37.890625 C-0.47033005 36.80867859 -0.45237885 35.72673218 -0.43388367 34.61199951 C-0.37972364 31.15803926 -0.34586597 27.70421765 -0.3125 24.25 C-0.27933204 21.90753277 -0.24484287 19.56508384 -0.20898438 17.22265625 C-0.12399389 11.48189516 -0.05566801 5.74111625 0 0 Z " fill="#FBA81F" transform="translate(164,154)"/>
<path d="M0 0 C0 3.27763744 -0.60359014 5.06018976 -2 8 C-2.46664063 8.43828125 -2.93328125 8.8765625 -3.4140625 9.328125 C-8.16480583 14.33629777 -10.38495941 22.39301579 -12 29 C-11.34 29.33 -10.68 29.66 -10 30 C-10.66 30.66 -11.32 31.32 -12 32 C-14.53167499 41.02109505 -13.96384224 53.10847328 -11 62 C-10.96045766 64.33299825 -10.95598268 66.66708189 -11 69 C-16.59043136 63.40956864 -15.20902064 52.34607086 -15.25 44.9375 C-15.25918457 44.01614258 -15.26836914 43.09478516 -15.27783203 42.14550781 C-15.21261651 27.49027536 -10.65511328 10.65511328 0 0 Z " fill="#FBA931" transform="translate(18,154)"/>
<path d="M0 0 C1 2 1 2 0.27734375 5.21484375 C-0.98159197 8.94545144 -2.54556977 12.11633892 -4.4375 15.5625 C-8.10982303 22.50511533 -9.75913131 29.22388954 -11 37 C-11.33 37 -11.66 37 -12 37 C-12.20555835 31.38763427 -11.69390978 26.67763106 -9.9375 21.3125 C-9.7206958 20.63058594 -9.5038916 19.94867188 -9.28051758 19.24609375 C-6.98453638 12.37650525 -3.69376254 6.2165917 0 0 Z " fill="#FBB13C" transform="translate(16,41)"/>
<path d="M0 0 C-1.625 5.75 -1.625 5.75 -5 8 C-5 7.34 -5 6.68 -5 6 C-8.63 6 -12.26 6 -16 6 C-15.67 5.01 -15.34 4.02 -15 3 C-12.36 3 -9.72 3 -7 3 C-7 2.34 -7 1.68 -7 1 C-4.53721199 -0.231394 -2.7204945 -0.07159196 0 0 Z " fill="#FEB514" transform="translate(157,236)"/>
<path d="M0 0 C0.66 0 1.32 0 2 0 C12 20.05479452 12 20.05479452 12 30 C11.34 30 10.68 30 10 30 C9.67 27.03 9.34 24.06 9 21 C8.34 21 7.68 21 7 21 C6.525625 19.88625 6.05125 18.7725 5.5625 17.625 C4.74693537 15.73289006 3.92143645 13.84287291 3 12 C2.855625 10.906875 2.71125 9.81375 2.5625 8.6875 C2.0684292 5.4485914 1.34553712 2.96018166 0 0 Z " fill="#FCB037" transform="translate(157,45)"/>
<path d="M0 0 C3 3.75 3 3.75 3 6 C6.94727588 6.17942163 9.5980513 6.09350689 13 4 C13 4.99 13 5.98 13 7 C13.99 6.67 14.98 6.34 16 6 C16 6.99 16 7.98 16 9 C14.741875 9.185625 13.48375 9.37125 12.1875 9.5625 C11.12595703 9.71912109 11.12595703 9.71912109 10.04296875 9.87890625 C8 10 8 10 5 9 C5.33 10.65 5.66 12.3 6 14 C2.59801074 9.95001278 0 5.36373351 0 0 Z " fill="#FDB02A" transform="translate(7,224)"/>
<path d="M0 0 C3.31419098 1.44902969 5.56592592 3.2680214 8.125 5.8125 C8.80820313 6.47894531 9.49140625 7.14539062 10.1953125 7.83203125 C12.10934237 10.13135285 13.04569183 12.18134751 14 15 C12.02 15 10.04 15 8 15 C7.67 15.66 7.34 16.32 7 17 C7 16.34 7 15.68 7 15 C6.01 15 5.02 15 4 15 C4.33 14.01 4.66 13.02 5 12 C5.99 12 6.98 12 8 12 C7.43191766 8.37547464 6.09258109 6.78521189 3.4375 4.3125 C2.27785215 3.22285101 1.12813455 2.12224351 0 1 C0 0.67 0 0.34 0 0 Z " fill="#FCB02A" transform="translate(141,26)"/>
<path d="M0 0 C0.33 0 0.66 0 1 0 C1.71081997 10.30688949 -1.19022521 19.91793241 -6 29 C-6.33 29 -6.66 29 -7 29 C-7 27.35 -7 25.7 -7 24 C-6.34 24 -5.68 24 -5 24 C-4.34 20.04 -3.68 16.08 -3 12 C-2.34 12 -1.68 12 -1 12 C-0.67 8.04 -0.34 4.08 0 0 Z " fill="#FBAA3F" transform="translate(164,207)"/>
<path d="M0 0 C1.65 1.65 3.3 3.3 5 5 C4.67 5.66 4.34 6.32 4 7 C10.03466457 7.64233246 10.03466457 7.64233246 15 4.5 C15.66 3.675 16.32 2.85 17 2 C17.99 2.33 18.98 2.66 20 3 C16.81752638 6.07890199 14.11443854 8.6210909 9.875 10.0625 C6.32728257 9.98537571 4.75102637 9.21610458 2 7 C0.26476072 4.35582586 0 3.21534057 0 0 Z " fill="#FCAF20" transform="translate(54,212)"/>
<path d="M0 0 C0.66 0.33 1.32 0.66 2 1 C0.07462497 3.63847689 -1.44738217 5.68635204 -4.3125 7.3125 C-7.5805971 9.36456097 -9.76309551 11.79817491 -12.3125 14.6875 C-12.76689453 15.19861328 -13.22128906 15.70972656 -13.68945312 16.23632812 C-14.79876478 17.48576335 -15.90020678 18.74217823 -17 20 C-17 14.49046452 -11.69518349 10.76920103 -8 7 C-5.39894309 4.58259735 -2.74176609 2.25616719 0 0 Z " fill="#FBAC42" transform="translate(35,21)"/>
<path d="M0 0 C0.33 0 0.66 0 1 0 C1.05534912 0.59014893 1.11069824 1.18029785 1.16772461 1.78833008 C1.42067687 4.46341208 1.679027 7.13794603 1.9375 9.8125 C2.02451172 10.74126953 2.11152344 11.67003906 2.20117188 12.62695312 C2.28818359 13.51962891 2.37519531 14.41230469 2.46484375 15.33203125 C2.543396 16.15421143 2.62194824 16.9763916 2.70288086 17.82348633 C2.95551045 20.17487422 2.95551045 20.17487422 4 23 C4.03954234 25.33299825 4.04401732 27.66708189 4 30 C-0.77619841 25.22380159 -0.10548605 16.56084523 -0.13623047 10.15063477 C-0.11997373 6.76605262 -0.07140684 3.38389057 0 0 Z " fill="#FAA854" transform="translate(3,193)"/>
<path d="M0 0 C0.99 0.33 1.98 0.66 3 1 C1.71034824 2.37562854 0.37310707 3.70766393 -1 5 C-1.66 5 -2.32 5 -3 5 C-3.24492188 5.57234375 -3.48984375 6.1446875 -3.7421875 6.734375 C-5.21110099 9.38024402 -6.95348244 11.14853139 -9.125 13.25 C-9.84945312 13.95640625 -10.57390625 14.6628125 -11.3203125 15.390625 C-11.87460938 15.92171875 -12.42890625 16.4528125 -13 17 C-13.66 16.67 -14.32 16.34 -15 16 C-13.71937515 14.2925002 -12.38232443 12.62626404 -11 11 C-10.34 11 -9.68 11 -9 11 C-9 10.34 -9 9.68 -9 9 C-7.625 7.375 -7.625 7.375 -6 6 C-5.34 6 -4.68 6 -4 6 C-4 5.34 -4 4.68 -4 4 C-3.34 4 -2.68 4 -2 4 C-1.34 2.68 -0.68 1.36 0 0 Z " fill="#FDBC16" transform="translate(93,150)"/>
<path d="M0 0 C0.66 0.33 1.32 0.66 2 1 C-1.16223584 5.0246638 -4.41356409 8.28423208 -8.3515625 11.54296875 C-10.53746429 13.4750573 -12.27563348 15.65486153 -14 18 C-14.99 17.67 -15.98 17.34 -17 17 C-11.39 11.39 -5.78 5.78 0 0 Z " fill="#FCAC1B" transform="translate(75,96)"/>
<path d="M0 0 C1.485 0.99 1.485 0.99 3 2 C4.2375 2.2165625 4.2375 2.2165625 5.5 2.4375 C8.34600424 3.07785095 9.28063559 3.67885805 11 6 C11.625 8.0625 11.625 8.0625 12 10 C12.33 10.66 12.66 11.32 13 12 C9.57143381 10.49017269 7.04321784 8.48286031 4.25 6 C3.45078125 5.29875 2.6515625 4.5975 1.828125 3.875 C0 2 0 2 0 0 Z " fill="#FCAB40" transform="translate(22,250)"/>
<path d="M0 0 C0.33 0.66 0.66 1.32 1 2 C-0.11375 1.979375 -1.2275 1.95875 -2.375 1.9375 C-5.83215921 1.73619282 -5.83215921 1.73619282 -8 3 C-8.1546875 3.9590625 -8.1546875 3.9590625 -8.3125 4.9375 C-9 7 -9 7 -11.375 8.25 C-14 9 -14 9 -17 9 C-15.71142987 7.68445979 -14.41904109 6.37265903 -13.125 5.0625 C-12.04605469 3.96615234 -12.04605469 3.96615234 -10.9453125 2.84765625 C-7.41788693 -0.50268972 -4.75035442 -0.08796953 0 0 Z " fill="#FCAD20" transform="translate(114,67)"/>
<path d="M0 0 C0.33 0.66 0.66 1.32 1 2 C0.34 2 -0.32 2 -1 2 C-1 2.66 -1 3.32 -1 4 C-1.66 4 -2.32 4 -3 4 C-3 4.99 -3 5.98 -3 7 C-3.99 7 -4.98 7 -6 7 C-6 7.66 -6 8.32 -6 9 C-6.66 9 -7.32 9 -8 9 C-8 9.66 -8 10.32 -8 11 C-8.66 11 -9.32 11 -10 11 C-10.66 12.32 -11.32 13.64 -12 15 C-12.66 14.67 -13.32 14.34 -14 14 C-12.625 12 -12.625 12 -11 10 C-10.34 10 -9.68 10 -9 10 C-9 9.34 -9 8.68 -9 8 C-8.34 8 -7.68 8 -7 8 C-6.731875 7.360625 -6.46375 6.72125 -6.1875 6.0625 C-5 4 -5 4 -2 3 C-2 2.34 -2 1.68 -2 1 C-1.34 0.67 -0.68 0.34 0 0 Z " fill="#FBBA29" transform="translate(50,121)"/>
<path d="M0 0 C-1.625 5.75 -1.625 5.75 -5 8 C-5 6.35 -5 4.7 -5 3 C-5.66 3 -6.32 3 -7 3 C-7 2.34 -7 1.68 -7 1 C-4.53721199 -0.231394 -2.7204945 -0.07159196 0 0 Z " fill="#FDB426" transform="translate(157,236)"/>
<path d="M0 0 C0.33 0 0.66 0 1 0 C1 1.65 1 3.3 1 5 C0.4225 5.020625 -0.155 5.04125 -0.75 5.0625 C-4.38390121 6.5766255 -5.24850416 9.55956175 -7 13 C-7.33 12.01 -7.66 11.02 -8 10 C-6.85546875 8.02734375 -6.85546875 8.02734375 -5.1875 5.9375 C-4.37345703 4.89916016 -4.37345703 4.89916016 -3.54296875 3.83984375 C-2 2 -2 2 0 0 Z " fill="#FCAB1B" transform="translate(63,181)"/>
<path d="M0 0 C1.98 0 3.96 0 6 0 C6.33 0.99 6.66 1.98 7 3 C10.00007271 4.70855022 10.00007271 4.70855022 13 6 C10 7 10 7 7.51953125 5.8203125 C6.62621094 5.26085937 5.73289062 4.70140625 4.8125 4.125 C3.91144531 3.57070313 3.01039062 3.01640625 2.08203125 2.4453125 C1.39496094 1.96835937 0.70789062 1.49140625 0 1 C0 0.67 0 0.34 0 0 Z " fill="#FBAA3A" transform="translate(38,264)"/>
<path d="M0 0 C0.66 0.33 1.32 0.66 2 1 C0.71451591 2.33929505 -0.57858155 3.67128643 -1.875 5 C-2.59429687 5.7425 -3.31359375 6.485 -4.0546875 7.25 C-6 9 -6 9 -8 9 C-8 8.34 -8 7.68 -8 7 C-7.34 7 -6.68 7 -6 7 C-5.67 6.01 -5.34 5.02 -5 4 C-4.34 4 -3.68 4 -3 4 C-3 3.01 -3 2.02 -3 1 C-2.01 0.67 -1.02 0.34 0 0 Z " fill="#FCAC0E" transform="translate(66,148)"/>
<path d="M0 0 C0.33 0 0.66 0 1 0 C1 1.65 1 3.3 1 5 C0.34 5 -0.32 5 -1 5 C-1 5.66 -1 6.32 -1 7 C-2.32 6.67 -3.64 6.34 -5 6 C-3.35830472 3.97945196 -1.69088222 1.97956942 0 0 Z " fill="#FDAF1B" transform="translate(23,148)"/>
<path d="M0 0 C0.66 0.33 1.32 0.66 2 1 C1.67 1.66 1.34 2.32 1 3 C0.34 3 -0.32 3 -1 3 C-1.28875 3.78375 -1.5775 4.5675 -1.875 5.375 C-3 8 -3 8 -5 10 C-5.99 9.67 -6.98 9.34 -8 9 C-7.04882866 7.8274869 -6.08882991 6.66212985 -5.125 5.5 C-4.32449219 4.52546875 -4.32449219 4.52546875 -3.5078125 3.53125 C-2.76144531 2.77328125 -2.76144531 2.77328125 -2 2 C-1.34 2 -0.68 2 0 2 C0 1.34 0 0.68 0 0 Z " fill="#FBB329" transform="translate(34,136)"/>
<path d="M0 0 C2.31 1.98 4.62 3.96 7 6 C6.67 7.32 6.34 8.64 6 10 C4.99421411 8.71283353 3.99553202 7.42011342 3 6.125 C2.443125 5.40570313 1.88625 4.68640625 1.3125 3.9453125 C0 2 0 2 0 0 Z " fill="#FAAE3D" transform="translate(14,239)"/>
<path d="M0 0 C0.66 0.33 1.32 0.66 2 1 C2 2.65 2 4.3 2 6 C0.02 6 -1.96 6 -4 6 C-2.68 4.02 -1.36 2.04 0 0 Z " fill="#FEB71E" transform="translate(164,202)"/>
<path d="M0 0 C0.66 0.99 1.32 1.98 2 3 C-0.31 5.97 -2.62 8.94 -5 12 C-5 8.55639368 -4.20408468 7.25204608 -2.5 4.3125 C-2.0359375 3.50425781 -1.571875 2.69601563 -1.09375 1.86328125 C-0.7328125 1.24839844 -0.371875 0.63351563 0 0 Z " fill="#FCA70C" transform="translate(133,105)"/>
<path d="M0 0 C-5.75 5 -5.75 5 -8 5 C-8 3.68 -8 2.36 -8 1 C-2.25 -1.125 -2.25 -1.125 0 0 Z " fill="#FCAD2C" transform="translate(138,260)"/>
<path d="M0 0 C0.66 0 1.32 0 2 0 C0.62845496 2.95409701 -0.98863724 5.44008376 -3 8 C-3.66 7.67 -4.32 7.34 -5 7 C-4.34 5.35 -3.68 3.7 -3 2 C-2.01 2 -1.02 2 0 2 C0 1.34 0 0.68 0 0 Z " fill="#FDAC13" transform="translate(49,164)"/>
<path d="M0 0 C0 3 0 3 -1.3125 4.38671875 C-2.875 5.59114583 -4.4375 6.79557292 -6 8 C-6 7.01 -6 6.02 -6 5 C-5.34 5 -4.68 5 -4 5 C-4 4.01 -4 3.02 -4 2 C-2.68 1.34 -1.36 0.68 0 0 Z " fill="#FCAB0E" transform="translate(114,100)"/>
<path d="M0 0 C0.66 0 1.32 0 2 0 C0.71480435 2.86697492 -0.57129254 4.97607712 -3 7 C-3.66 7 -4.32 7 -5 7 C-5 6.34 -5 5.68 -5 5 C-4.34 5 -3.68 5 -3 5 C-2.67 4.01 -2.34 3.02 -2 2 C-1.34 2 -0.68 2 0 2 C0 1.34 0 0.68 0 0 Z " fill="#FCAE13" transform="translate(74,139)"/>
<path d="M0 0 C0.33 0.99 0.66 1.98 1 3 C-0.65 4.32 -2.3 5.64 -4 7 C-4.66 6.67 -5.32 6.34 -6 6 C-4.02 4.02 -2.04 2.04 0 0 Z " fill="#FBAD25" transform="translate(57,114)"/>
<path d="M0 0 C-0.3125 1.9375 -0.3125 1.9375 -1 4 C-1.99 4.33 -2.98 4.66 -4 5 C-4.66 3.68 -5.32 2.36 -6 1 C-3 0 -3 0 0 0 Z " fill="#FCB322" transform="translate(55,12)"/>
</svg>
