<svg width="609" height="178" viewBox="0 0 609 178" fill="none" xmlns="http://www.w3.org/2000/svg">
<path d="M41.7535 118.1C32.6868 118.1 26.0202 117.7 21.7535 116.9C17.4868 116.1 15.3535 115.166 15.3535 114.1L23.3535 96.6996C26.4202 97.2329 34.0202 97.7663 46.1535 98.2996C58.4202 98.6996 75.2202 98.8996 96.5535 98.8996H100.354C106.087 98.8996 110.154 97.8996 112.554 95.8996C114.954 93.7663 116.154 90.2329 116.154 85.2996V81.2996C116.154 76.6329 115.154 73.2996 113.154 71.2996C111.287 69.2996 107.02 68.2996 100.354 68.2996H53.9535C40.4869 68.2996 30.6869 65.8329 24.5535 60.8996C18.4202 55.8329 15.3535 47.6329 15.3535 36.2996V33.0996C15.3535 27.2329 16.4202 21.8329 18.5535 16.8996C20.8202 11.9663 24.6202 8.03294 29.9535 5.09961C35.2869 2.03294 42.6202 0.499609 51.9535 0.499609H106.354C115.42 0.499609 122.754 0.966274 128.354 1.8996C133.954 2.83294 136.754 3.83294 136.754 4.8996L132.754 21.6996C129.287 21.2996 121.42 20.8996 109.154 20.4996C96.8869 19.9663 80.4202 19.6996 59.7535 19.6996L57.5535 19.4996C51.4202 19.4996 47.2869 20.7663 45.1535 23.2996C43.0202 25.6996 41.8868 28.7663 41.7535 32.4996V35.8996C41.7535 40.2996 42.9535 43.6329 45.3535 45.8996C47.8869 48.0329 52.0202 49.0996 57.7535 49.0996H102.154C110.687 49.0996 117.954 49.9663 123.954 51.6996C129.954 53.4329 134.554 56.6329 137.754 61.2996C140.954 65.8329 142.554 72.5663 142.554 81.4996V84.6996C142.554 94.6996 139.954 102.766 134.754 108.9C129.687 115.033 120.82 118.1 108.154 118.1H41.7535ZM170.525 118.1V0.499609H196.925V118.1H170.525ZM228.924 118.1L230.924 102.1V0.499609H257.324V98.8996H340.124L348.124 115.9C348.124 116.433 346.324 116.966 342.724 117.5C339.124 117.9 332.924 118.1 324.124 118.1H228.924ZM383.81 118.1L328.01 0.699607H356.01L393.61 81.6996L399.01 96.0996H400.81L406.01 81.6996L444.01 0.699607H471.21L468.01 12.6996L415.81 118.1H383.81ZM451.791 118.1L510.391 0.499609H549.791L608.191 118.1H577.391L565.591 92.6996H493.991L480.991 118.1H451.791ZM501.191 73.0996H558.191L530.791 18.4996H528.791L501.191 73.0996ZM0.80835 176.1L14.8724 147.876H24.3284L38.3444 176.1H30.9524L28.1203 170.004H10.9364L7.81635 176.1H0.80835ZM12.6644 165.3H26.3443L19.7684 152.196H19.2884L12.6644 165.3ZM78.5792 176.58C75.6672 176.58 73.6352 175.796 72.4832 174.228C71.3312 172.66 70.7552 170.58 70.7552 167.988V147.876H77.0912V168.18C77.0912 169.684 77.4592 170.692 78.1952 171.204C78.9312 171.716 79.8432 171.972 80.9312 171.972H91.1072C92.1312 171.972 93.0272 171.716 93.7952 171.204C94.5632 170.66 94.9472 169.652 94.9472 168.18V147.876H101.283V167.988C101.283 169.716 101.043 171.22 100.563 172.5C100.083 173.78 99.2832 174.788 98.1632 175.524C97.0432 176.228 95.4912 176.58 93.5072 176.58H78.5792ZM147.153 176.1L147.105 152.436H134.625V147.828H166.017V152.436H153.489V176.1H147.153ZM208.417 176.1C206.177 176.1 204.417 175.78 203.137 175.14C201.857 174.5 200.945 173.54 200.401 172.26C199.889 170.98 199.633 169.396 199.633 167.508V156.42C199.633 154.564 199.889 153.012 200.401 151.764C200.913 150.484 201.809 149.524 203.089 148.884C204.369 148.212 206.145 147.876 208.417 147.876H222.433C224.673 147.876 226.417 148.212 227.665 148.884C228.945 149.524 229.841 150.484 230.353 151.764C230.897 153.012 231.169 154.564 231.169 156.42V167.508C231.169 170.324 230.545 172.468 229.297 173.94C228.049 175.38 225.761 176.1 222.433 176.1H208.417ZM209.809 171.492H221.089C222.273 171.492 223.185 171.188 223.825 170.58C224.497 169.972 224.833 169.14 224.833 168.084V155.844C224.833 154.916 224.497 154.132 223.825 153.492C223.153 152.82 222.241 152.484 221.089 152.484H209.809C208.657 152.484 207.729 152.788 207.025 153.396C206.321 154.004 205.969 154.82 205.969 155.844V168.084C205.969 169.172 206.305 170.02 206.977 170.628C207.681 171.204 208.625 171.492 209.809 171.492ZM268.123 176.1V151.716L267.643 147.876H274.939L285.787 167.076L297.019 147.876H303.499V176.1H297.163V158.196H296.635L294.763 162.372L288.715 173.22H282.907L276.859 162.372L274.939 158.196H274.459V176.1H268.123ZM336.63 176.1L350.694 147.876H360.15L374.166 176.1H366.774L363.942 170.004H346.758L343.638 176.1H336.63ZM348.486 165.3H362.166L355.59 152.196H355.11L348.486 165.3ZM411.179 176.1L411.131 152.436H398.651V147.828H430.043V152.436H417.515V176.1H411.179ZM464.14 176.1V147.876H470.476V176.1H464.14ZM515.739 176.1C513.499 176.1 511.739 175.78 510.459 175.14C509.179 174.5 508.267 173.54 507.723 172.26C507.211 170.98 506.955 169.396 506.955 167.508V156.42C506.955 154.564 507.211 153.012 507.723 151.764C508.235 150.484 509.131 149.524 510.411 148.884C511.691 148.212 513.467 147.876 515.739 147.876H529.755C531.995 147.876 533.739 148.212 534.987 148.884C536.267 149.524 537.163 150.484 537.675 151.764C538.219 153.012 538.491 154.564 538.491 156.42V167.508C538.491 170.324 537.867 172.468 536.619 173.94C535.371 175.38 533.083 176.1 529.755 176.1H515.739ZM517.131 171.492H528.411C529.595 171.492 530.507 171.188 531.147 170.58C531.819 169.972 532.155 169.14 532.155 168.084V155.844C532.155 154.916 531.819 154.132 531.147 153.492C530.475 152.82 529.563 152.484 528.411 152.484H517.131C515.979 152.484 515.051 152.788 514.347 153.396C513.643 154.004 513.291 154.82 513.291 155.844V168.084C513.291 169.172 513.627 170.02 514.299 170.628C515.003 171.204 515.947 171.492 517.131 171.492ZM575.445 176.1V151.716L574.965 147.876H581.877L598.197 164.964L600.069 167.556H600.597V147.876H606.933V176.1H600.837L584.133 158.724L582.261 156.468H581.781V176.1H575.445Z" fill="white"/>
<path d="M21.7535 116.9L21.8457 116.408V116.408L21.7535 116.9ZM15.3535 114.1L14.8992 113.891L14.8535 113.99V114.1H15.3535ZM23.3535 96.6996L23.4392 96.207L23.06 96.1411L22.8992 96.4907L23.3535 96.6996ZM46.1535 98.2996L46.1316 98.7992L46.1372 98.7993L46.1535 98.2996ZM112.554 95.8996L112.874 96.2837L112.88 96.2786L112.886 96.2733L112.554 95.8996ZM113.154 71.2996L112.788 71.6408L112.794 71.6471L112.8 71.6532L113.154 71.2996ZM24.5535 60.8996L24.235 61.2851L24.2401 61.2892L24.5535 60.8996ZM18.5535 16.8996L18.0991 16.6908L18.0946 16.7011L18.5535 16.8996ZM29.9535 5.09961L30.1945 5.5378L30.2028 5.53307L29.9535 5.09961ZM128.354 1.8996L128.436 1.40641V1.4064L128.354 1.8996ZM136.754 4.8996L137.24 5.01541L137.254 4.95831V4.8996H136.754ZM132.754 21.6996L132.696 22.1963L133.137 22.2472L133.24 21.8154L132.754 21.6996ZM109.154 20.4996L109.132 20.9992L109.137 20.9993L109.154 20.4996ZM59.7535 19.6996L59.7083 20.1976L59.7308 20.1996H59.7535V19.6996ZM57.5535 19.4996L57.5988 19.0017L57.5762 18.9996H57.5535V19.4996ZM45.1535 23.2996L45.5274 23.6319L45.536 23.6217L45.1535 23.2996ZM41.7535 32.4996L41.2538 32.4818L41.2535 32.4907V32.4996H41.7535ZM45.3535 45.8996L45.0102 46.2631L45.0206 46.2729L45.0314 46.2821L45.3535 45.8996ZM123.954 51.6996L124.092 51.2192V51.2192L123.954 51.6996ZM137.754 61.2996L137.341 61.5824L137.345 61.588L137.754 61.2996ZM134.754 108.9L134.372 108.576L134.368 108.581L134.754 108.9ZM41.7535 118.1V117.6C32.692 117.6 26.0642 117.199 21.8457 116.408L21.7535 116.9L21.6614 117.391C25.9762 118.2 32.6817 118.6 41.7535 118.6V118.1ZM21.7535 116.9L21.8457 116.408C19.7235 116.01 18.1679 115.585 17.1539 115.142C16.6456 114.919 16.3034 114.705 16.0955 114.51C15.891 114.318 15.8535 114.183 15.8535 114.1H15.3535H14.8535C14.8535 114.55 15.0827 114.931 15.4115 115.239C15.7369 115.544 16.1948 115.813 16.7531 116.058C17.8724 116.547 19.5169 116.989 21.6614 117.391L21.7535 116.9ZM15.3535 114.1L15.8078 114.308L23.8078 96.9085L23.3535 96.6996L22.8992 96.4907L14.8992 113.891L15.3535 114.1ZM23.3535 96.6996L23.2678 97.1922C26.3732 97.7323 34.0097 98.2663 46.1316 98.7991L46.1535 98.2996L46.1755 97.8001C34.0306 97.2663 26.4672 96.7336 23.4392 96.207L23.3535 96.6996ZM46.1535 98.2996L46.1372 98.7993C58.4118 99.1996 75.2181 99.3996 96.5535 99.3996V98.8996V98.3996C75.2223 98.3996 58.4285 98.1996 46.1698 97.7999L46.1535 98.2996ZM96.5535 98.8996V99.3996H100.354V98.8996V98.3996H96.5535V98.8996ZM100.354 98.8996V99.3996C106.118 99.3996 110.334 98.3997 112.874 96.2837L112.554 95.8996L112.233 95.5155C109.973 97.3996 106.056 98.3996 100.354 98.3996V98.8996ZM112.554 95.8996L112.886 96.2733C115.439 94.004 116.654 90.2994 116.654 85.2996H116.154H115.654C115.654 90.1665 114.468 93.5285 112.221 95.5259L112.554 95.8996ZM116.154 85.2996H116.654V81.2996H116.154H115.654V85.2996H116.154ZM116.154 81.2996H116.654C116.654 76.5822 115.646 73.0851 113.507 70.946L113.154 71.2996L112.8 71.6532C114.661 73.5141 115.654 76.6837 115.654 81.2996H116.154ZM113.154 71.2996L113.519 70.9585C112.489 69.8545 110.844 69.073 108.668 68.5628C106.483 68.0508 103.708 67.7996 100.354 67.7996V68.2996V68.7996C103.666 68.7996 106.357 69.0485 108.439 69.5364C110.529 70.0262 111.952 70.7447 112.788 71.6408L113.154 71.2996ZM100.354 68.2996V67.7996H53.9535V68.2996V68.7996H100.354V68.2996ZM53.9535 68.2996V67.7996C40.5273 67.7996 30.8674 65.3365 24.8669 60.51L24.5535 60.8996L24.2401 61.2892C30.5063 66.3294 40.4464 68.7996 53.9535 68.7996V68.2996ZM24.5535 60.8996L24.872 60.5141C18.8962 55.5777 15.8535 47.5497 15.8535 36.2996H15.3535H14.8535C14.8535 47.7162 17.9441 56.0882 24.2351 61.2851L24.5535 60.8996ZM15.3535 36.2996H15.8535V33.0996H15.3535H14.8535V36.2996H15.3535ZM15.3535 33.0996H15.8535C15.8535 27.2949 16.9086 21.9632 19.0124 17.0981L18.5535 16.8996L18.0946 16.7011C15.9318 21.7027 14.8535 27.171 14.8535 33.0996H15.3535ZM18.5535 16.8996L19.0079 17.1084C21.2244 12.284 24.9431 8.42598 30.1945 5.53772L29.9535 5.09961L29.7126 4.6615C24.2973 7.6399 20.4159 11.6485 18.0992 16.6908L18.5535 16.8996ZM29.9535 5.09961L30.2028 5.53307C35.4309 2.5269 42.666 0.999611 51.9535 0.999611V0.499611V-0.000389099C42.5744 -0.000389099 35.1428 1.53899 29.7043 4.66615L29.9535 5.09961ZM51.9535 0.499611V0.999611H106.354V0.499611V-0.000389099H51.9535V0.499611ZM106.354 0.499611V0.999611C115.407 0.999611 122.71 1.46585 128.271 2.3928L128.354 1.8996L128.436 1.4064C122.797 0.466698 115.434 -0.000389099 106.354 -0.000389099V0.499611ZM128.354 1.8996L128.271 2.3928C131.063 2.85814 133.128 3.33575 134.485 3.82048C135.167 4.06391 135.639 4.2985 135.932 4.51439C136.235 4.73816 136.254 4.87072 136.254 4.8996H136.754H137.254C137.254 4.39515 136.922 4.00272 136.525 3.70982C136.118 3.40904 135.54 3.1353 134.822 2.87873C133.379 2.36346 131.244 1.8744 128.436 1.40641L128.354 1.8996ZM136.754 4.8996L136.267 4.78379L132.267 21.5838L132.754 21.6996L133.24 21.8154L137.24 5.01541L136.754 4.8996ZM132.754 21.6996L132.811 21.2029C129.32 20.8001 121.431 20.3997 109.17 19.9999L109.154 20.4996L109.137 20.9993C121.41 21.3995 129.254 21.7991 132.696 22.1963L132.754 21.6996ZM109.154 20.4996L109.175 20.0001C96.8981 19.4663 80.4233 19.1996 59.7535 19.1996V19.6996V20.1996C80.4171 20.1996 96.8756 20.4663 109.132 20.9991L109.154 20.4996ZM59.7535 19.6996L59.7988 19.2017L57.5988 19.0017L57.5535 19.4996L57.5083 19.9976L59.7083 20.1976L59.7535 19.6996ZM57.5535 19.4996V18.9996C51.3889 18.9996 47.0549 20.2655 44.7711 22.9775L45.1535 23.2996L45.536 23.6217C47.5188 21.2671 51.4514 19.9996 57.5535 19.9996V19.4996ZM45.1535 23.2996L44.7798 22.9674C42.5569 25.4682 41.3906 28.6521 41.2538 32.4818L41.7535 32.4996L42.2532 32.5174C42.3831 28.8804 43.4835 25.931 45.5272 23.6318L45.1535 23.2996ZM41.7535 32.4996H41.2535V35.8996H41.7535H42.2535V32.4996H41.7535ZM41.7535 35.8996H41.2535C41.2535 40.3894 42.4801 43.8736 45.0102 46.2631L45.3535 45.8996L45.6968 45.5361C43.4269 43.3923 42.2535 40.2098 42.2535 35.8996H41.7535ZM45.3535 45.8996L45.0314 46.2821C47.7007 48.5298 51.9806 49.5996 57.7535 49.5996V49.0996V48.5996C52.0598 48.5996 48.073 47.536 45.6756 45.5172L45.3535 45.8996ZM57.7535 49.0996V49.5996H102.154V49.0996V48.5996H57.7535V49.0996ZM102.154 49.0996V49.5996C110.656 49.5996 117.873 50.4634 123.815 52.18L123.954 51.6996L124.092 51.2192C118.034 49.4691 110.718 48.5996 102.154 48.5996V49.0996ZM123.954 51.6996L123.815 52.18C129.716 53.8847 134.214 57.0214 137.341 61.5824L137.754 61.2996L138.166 61.0168C134.893 56.2445 130.191 52.9812 124.092 51.2192L123.954 51.6996ZM137.754 61.2996L137.345 61.588C140.459 65.9996 142.054 72.6118 142.054 81.4996H142.554H143.054C143.054 72.5208 141.448 65.6663 138.162 61.0113L137.754 61.2996ZM142.554 81.4996H142.054V84.6996H142.554H143.054V81.4996H142.554ZM142.554 84.6996H142.054C142.054 94.611 139.478 102.554 134.372 108.576L134.754 108.9L135.135 109.223C140.429 102.979 143.054 94.7882 143.054 84.6996H142.554ZM134.754 108.9L134.368 108.581C129.441 114.546 120.759 117.6 108.154 117.6V118.1V118.6C120.882 118.6 129.933 115.52 135.139 109.218L134.754 108.9ZM108.154 118.1V117.6H41.7535V118.1V118.6H108.154V118.1ZM170.525 118.1H170.025V118.6H170.525V118.1ZM170.525 0.499611V-0.000389099H170.025V0.499611H170.525ZM196.925 0.499611H197.425V-0.000389099H196.925V0.499611ZM196.925 118.1V118.6H197.425V118.1H196.925ZM170.525 118.1H171.025V0.499611H170.525H170.025V118.1H170.525ZM170.525 0.499611V0.999611H196.925V0.499611V-0.000389099H170.525V0.499611ZM196.925 0.499611H196.425V118.1H196.925H197.425V0.499611H196.925ZM196.925 118.1V117.6H170.525V118.1V118.6H196.925V118.1ZM228.924 118.1L228.428 118.038L228.357 118.6H228.924V118.1ZM230.924 102.1L231.42 102.162L231.424 102.131V102.1H230.924ZM230.924 0.499611V-0.000389099H230.424V0.499611H230.924ZM257.324 0.499611H257.824V-0.000389099H257.324V0.499611ZM257.324 98.8996H256.824V99.3996H257.324V98.8996ZM340.124 98.8996L340.576 98.6867L340.441 98.3996H340.124V98.8996ZM348.124 115.9H348.624V115.788L348.576 115.687L348.124 115.9ZM342.724 117.5L342.779 117.997L342.788 117.996L342.797 117.994L342.724 117.5ZM228.924 118.1L229.42 118.162L231.42 102.162L230.924 102.1L230.428 102.038L228.428 118.038L228.924 118.1ZM230.924 102.1H231.424V0.499611H230.924H230.424V102.1H230.924ZM230.924 0.499611V0.999611H257.324V0.499611V-0.000389099H230.924V0.499611ZM257.324 0.499611H256.824V98.8996H257.324H257.824V0.499611H257.324ZM257.324 98.8996V99.3996H340.124V98.8996V98.3996H257.324V98.8996ZM340.124 98.8996L339.671 99.1125L347.671 116.113L348.124 115.9L348.576 115.687L340.576 98.6867L340.124 98.8996ZM348.124 115.9H347.624C347.624 115.739 347.744 115.744 347.531 115.869C347.359 115.971 347.068 116.091 346.632 116.22C345.766 116.477 344.445 116.739 342.651 117.005L342.724 117.5L342.797 117.994C344.603 117.727 345.981 117.456 346.916 117.179C347.379 117.042 347.763 116.894 348.041 116.73C348.279 116.589 348.624 116.327 348.624 115.9H348.124ZM342.724 117.5L342.669 117.003C339.099 117.399 332.924 117.6 324.124 117.6V118.1V118.6C332.924 118.6 339.149 118.4 342.779 117.997L342.724 117.5ZM324.124 118.1V117.6H228.924V118.1V118.6H324.124V118.1ZM383.81 118.1L383.358 118.314L383.494 118.6H383.81V118.1ZM328.01 0.699608V0.199608H327.219L327.558 0.914246L328.01 0.699608ZM356.01 0.699608L356.463 0.489082L356.329 0.199608H356.01V0.699608ZM393.61 81.6996L394.078 81.524L394.071 81.5063L394.063 81.4891L393.61 81.6996ZM399.01 96.0996L398.542 96.2752L398.663 96.5996H399.01V96.0996ZM400.81 96.0996V96.5996H401.161L401.28 96.2694L400.81 96.0996ZM406.01 81.6996L405.557 81.4872L405.547 81.5081L405.539 81.5298L406.01 81.6996ZM444.01 0.699608V0.199608H443.692L443.557 0.487244L444.01 0.699608ZM471.21 0.699608L471.693 0.828438L471.861 0.199608H471.21V0.699608ZM468.01 12.6996L468.458 12.9215L468.48 12.8767L468.493 12.8284L468.01 12.6996ZM415.81 118.1V118.6H416.12L416.258 118.322L415.81 118.1ZM383.81 118.1L384.261 117.885L328.461 0.48497L328.01 0.699608L327.558 0.914246L383.358 118.314L383.81 118.1ZM328.01 0.699608V1.19961H356.01V0.699608V0.199608H328.01V0.699608ZM356.01 0.699608L355.556 0.910133L393.156 81.9101L393.61 81.6996L394.063 81.4891L356.463 0.489082L356.01 0.699608ZM393.61 81.6996L393.142 81.8752L398.542 96.2752L399.01 96.0996L399.478 95.924L394.078 81.524L393.61 81.6996ZM399.01 96.0996V96.5996H400.81V96.0996V95.5996H399.01V96.0996ZM400.81 96.0996L401.28 96.2694L406.48 81.8694L406.01 81.6996L405.539 81.5298L400.339 95.9298L400.81 96.0996ZM406.01 81.6996L406.462 81.912L444.462 0.911964L444.01 0.699608L443.557 0.487244L405.557 81.4872L406.01 81.6996ZM444.01 0.699608V1.19961H471.21V0.699608V0.199608H444.01V0.699608ZM471.21 0.699608L470.727 0.570778L467.527 12.5708L468.01 12.6996L468.493 12.8284L471.693 0.828438L471.21 0.699608ZM468.01 12.6996L467.562 12.4777L415.362 117.878L415.81 118.1L416.258 118.322L468.458 12.9215L468.01 12.6996ZM415.81 118.1V117.6H383.81V118.1V118.6H415.81V118.1ZM451.791 118.1L451.344 117.877L450.983 118.6H451.791V118.1ZM510.391 0.499611V-0.000389099H510.082L509.943 0.276611L510.391 0.499611ZM549.791 0.499611L550.239 0.277222L550.101 -0.000389099H549.791V0.499611ZM608.191 118.1V118.6H608.998L608.639 117.877L608.191 118.1ZM577.391 118.1L576.938 118.31L577.072 118.6H577.391V118.1ZM565.591 92.6996L566.044 92.489L565.91 92.1996H565.591V92.6996ZM493.991 92.6996V92.1996H493.685L493.546 92.4718L493.991 92.6996ZM480.991 118.1V118.6H481.297L481.436 118.327L480.991 118.1ZM501.191 73.0996L500.745 72.874L500.378 73.5996H501.191V73.0996ZM558.191 73.0996V73.5996H559.001L558.638 72.8754L558.191 73.0996ZM530.791 18.4996L531.238 18.2753L531.1 17.9996H530.791V18.4996ZM528.791 18.4996V17.9996H528.484L528.345 18.274L528.791 18.4996ZM451.791 118.1L452.239 118.323L510.839 0.72261L510.391 0.499611L509.943 0.276611L451.344 117.877L451.791 118.1ZM510.391 0.499611V0.999611H549.791V0.499611V-0.000389099H510.391V0.499611ZM549.791 0.499611L549.343 0.722L607.743 118.322L608.191 118.1L608.639 117.877L550.239 0.277222L549.791 0.499611ZM608.191 118.1V117.6H577.391V118.1V118.6H608.191V118.1ZM577.391 118.1L577.844 117.889L566.044 92.489L565.591 92.6996L565.138 92.9103L576.938 118.31L577.391 118.1ZM565.591 92.6996V92.1996H493.991V92.6996V93.1996H565.591V92.6996ZM493.991 92.6996L493.546 92.4718L480.546 117.872L480.991 118.1L481.436 118.327L494.436 92.9274L493.991 92.6996ZM480.991 118.1V117.6H451.791V118.1V118.6H480.991V118.1ZM501.191 73.0996V73.5996H558.191V73.0996V72.5996H501.191V73.0996ZM558.191 73.0996L558.638 72.8754L531.238 18.2753L530.791 18.4996L530.344 18.7239L557.744 73.3239L558.191 73.0996ZM530.791 18.4996V17.9996H528.791V18.4996V18.9996H530.791V18.4996ZM528.791 18.4996L528.345 18.274L500.745 72.874L501.191 73.0996L501.637 73.3252L529.237 18.7252L528.791 18.4996ZM0.80835 176.1L0.360832 175.877L0.000562668 176.6H0.80835V176.1ZM14.8724 147.876V147.376H14.5629L14.4248 147.653L14.8724 147.876ZM24.3284 147.876L24.7762 147.653L24.6383 147.376H24.3284V147.876ZM38.3444 176.1V176.6H39.1509L38.7922 175.877L38.3444 176.1ZM30.9524 176.1L30.4989 176.31L30.6333 176.6H30.9524V176.1ZM28.1203 170.004L28.5738 169.793L28.4394 169.504H28.1203V170.004ZM10.9363 170.004V169.504H10.6306L10.4913 169.776L10.9363 170.004ZM7.81635 176.1V176.6H8.12213L8.26144 176.327L7.81635 176.1ZM12.6644 165.3L12.2181 165.074L11.8514 165.8H12.6644V165.3ZM26.3443 165.3V165.8H27.1547L26.7912 165.075L26.3443 165.3ZM19.7683 152.196L20.2152 151.971L20.0769 151.696H19.7683V152.196ZM19.2884 152.196V151.696H18.9808L18.8421 151.97L19.2884 152.196ZM0.80835 176.1L1.25587 176.323L15.3199 148.099L14.8724 147.876L14.4248 147.653L0.360832 175.877L0.80835 176.1ZM14.8724 147.876V148.376H24.3284V147.876V147.376H14.8724V147.876ZM24.3284 147.876L23.8805 148.098L37.8965 176.322L38.3444 176.1L38.7922 175.877L24.7762 147.653L24.3284 147.876ZM38.3444 176.1V175.6H30.9524V176.1V176.6H38.3444V176.1ZM30.9524 176.1L31.4058 175.889L28.5738 169.793L28.1203 170.004L27.6669 170.214L30.4989 176.31L30.9524 176.1ZM28.1203 170.004V169.504H10.9363V170.004V170.504H28.1203V170.004ZM10.9363 170.004L10.4913 169.776L7.37126 175.872L7.81635 176.1L8.26144 176.327L11.3814 170.231L10.9363 170.004ZM7.81635 176.1V175.6H0.80835V176.1V176.6H7.81635V176.1ZM12.6644 165.3V165.8H26.3443V165.3V164.8H12.6644V165.3ZM26.3443 165.3L26.7912 165.075L20.2152 151.971L19.7683 152.196L19.3215 152.42L25.8975 165.524L26.3443 165.3ZM19.7683 152.196V151.696H19.2884V152.196V152.696H19.7683V152.196ZM19.2884 152.196L18.8421 151.97L12.2181 165.074L12.6644 165.3L13.1106 165.525L19.7346 152.421L19.2884 152.196ZM72.4832 174.228L72.0803 174.524V174.524L72.4832 174.228ZM70.7552 147.876V147.376H70.2552V147.876H70.7552ZM77.0912 147.876H77.5912V147.376H77.0912V147.876ZM93.7952 171.204L94.0726 171.62L94.0785 171.616L94.0842 171.612L93.7952 171.204ZM94.9472 147.876V147.376H94.4472V147.876H94.9472ZM101.283 147.876H101.783V147.376H101.283V147.876ZM100.563 172.5L101.031 172.675V172.675L100.563 172.5ZM98.1632 175.524L98.4294 175.947L98.4378 175.941L98.1632 175.524ZM78.5792 176.58V176.08C75.7441 176.08 73.904 175.317 72.8862 173.932L72.4832 174.228L72.0803 174.524C73.3664 176.274 75.5904 177.08 78.5792 177.08V176.58ZM72.4832 174.228L72.8862 173.932C71.8152 172.474 71.2552 170.508 71.2552 167.988H70.7552H70.2552C70.2552 170.651 70.8472 172.845 72.0803 174.524L72.4832 174.228ZM70.7552 167.988H71.2552V147.876H70.7552H70.2552V167.988H70.7552ZM70.7552 147.876V148.376H77.0912V147.876V147.376H70.7552V147.876ZM77.0912 147.876H76.5912V168.18H77.0912H77.5912V147.876H77.0912ZM77.0912 168.18H76.5912C76.5912 169.736 76.9686 170.959 77.9097 171.614L78.1952 171.204L78.4808 170.793C77.9499 170.424 77.5912 169.631 77.5912 168.18H77.0912ZM78.1952 171.204L77.9097 171.614C78.746 172.196 79.7633 172.472 80.9312 172.472V171.972V171.472C79.9232 171.472 79.1164 171.235 78.4808 170.793L78.1952 171.204ZM80.9312 171.972V172.472H91.1072V171.972V171.472H80.9312V171.972ZM91.1072 171.972V172.472C92.2187 172.472 93.2136 172.192 94.0726 171.62L93.7952 171.204L93.5179 170.788C92.8409 171.239 92.0437 171.472 91.1072 171.472V171.972ZM93.7952 171.204L94.0842 171.612C95.0462 170.93 95.4472 169.72 95.4472 168.18H94.9472H94.4472C94.4472 169.584 94.0802 170.389 93.5062 170.796L93.7952 171.204ZM94.9472 168.18H95.4472V147.876H94.9472H94.4472V168.18H94.9472ZM94.9472 147.876V148.376H101.283V147.876V147.376H94.9472V147.876ZM101.283 147.876H100.783V167.988H101.283H101.783V147.876H101.283ZM101.283 167.988H100.783C100.783 169.671 100.549 171.113 100.095 172.324L100.563 172.5L101.031 172.675C101.537 171.326 101.783 169.76 101.783 167.988H101.283ZM100.563 172.5L100.095 172.324C99.6515 173.507 98.9182 174.429 97.8886 175.106L98.1632 175.524L98.4378 175.941C99.6483 175.146 100.515 174.052 101.031 172.675L100.563 172.5ZM98.1632 175.524L97.8971 175.1C96.8873 175.735 95.441 176.08 93.5072 176.08V176.58V177.08C95.5415 177.08 97.1992 176.72 98.4293 175.947L98.1632 175.524ZM93.5072 176.58V176.08H78.5792V176.58V177.08H93.5072V176.58ZM147.153 176.1L146.653 176.101L146.654 176.6H147.153V176.1ZM147.105 152.436L147.605 152.435L147.604 151.936H147.105V152.436ZM134.625 152.436H134.125V152.936H134.625V152.436ZM134.625 147.828V147.328H134.125V147.828H134.625ZM166.017 147.828H166.517V147.328H166.017V147.828ZM166.017 152.436V152.936H166.517V152.436H166.017ZM153.489 152.436V151.936H152.989V152.436H153.489ZM153.489 176.1V176.6H153.989V176.1H153.489ZM147.153 176.1L147.653 176.099L147.605 152.435L147.105 152.436L146.605 152.437L146.653 176.101L147.153 176.1ZM147.105 152.436V151.936H134.625V152.436V152.936H147.105V152.436ZM134.625 152.436H135.125V147.828H134.625H134.125V152.436H134.625ZM134.625 147.828V148.328H166.017V147.828V147.328H134.625V147.828ZM166.017 147.828H165.517V152.436H166.017H166.517V147.828H166.017ZM166.017 152.436V151.936H153.489V152.436V152.936H166.017V152.436ZM153.489 152.436H152.989V176.1H153.489H153.989V152.436H153.489ZM153.489 176.1V175.6H147.153V176.1V176.6H153.489V176.1ZM203.137 175.14L202.914 175.587V175.587L203.137 175.14ZM200.401 172.26L199.937 172.445L199.941 172.455L200.401 172.26ZM200.401 151.764L200.864 151.953L200.866 151.949L200.401 151.764ZM203.089 148.884L203.313 149.331L203.322 149.326L203.089 148.884ZM227.665 148.884L227.428 149.324L227.435 149.327L227.442 149.331L227.665 148.884ZM230.353 151.764L229.889 151.949L229.892 151.956L229.895 151.963L230.353 151.764ZM229.297 173.94L229.675 174.267L229.679 174.263L229.297 173.94ZM223.825 170.58L223.49 170.209L223.481 170.217L223.825 170.58ZM223.825 153.492L223.472 153.845L223.481 153.854L223.825 153.492ZM206.977 170.628L206.642 170.998L206.651 171.007L206.661 171.015L206.977 170.628ZM208.417 176.1V175.6C206.215 175.6 204.543 175.284 203.361 174.692L203.137 175.14L202.914 175.587C204.291 176.276 206.139 176.6 208.417 176.6V176.1ZM203.137 175.14L203.361 174.692C202.184 174.104 201.358 173.231 200.862 172.064L200.401 172.26L199.941 172.455C200.533 173.848 201.531 174.895 202.914 175.587L203.137 175.14ZM200.401 172.26L200.866 172.074C200.384 170.87 200.133 169.354 200.133 167.508H199.633H199.133C199.133 169.437 199.395 171.089 199.937 172.445L200.401 172.26ZM199.633 167.508H200.133V156.42H199.633H199.133V167.508H199.633ZM199.633 156.42H200.133C200.133 154.606 200.384 153.123 200.864 151.953L200.401 151.764L199.939 151.574C199.395 152.9 199.133 154.521 199.133 156.42H199.633ZM200.401 151.764L200.866 151.949C201.33 150.788 202.138 149.918 203.313 149.331L203.089 148.884L202.866 148.436C201.481 149.129 200.496 150.18 199.937 151.578L200.401 151.764ZM203.089 148.884L203.322 149.326C204.501 148.707 206.185 148.376 208.417 148.376V147.876V147.376C206.106 147.376 204.238 147.716 202.857 148.441L203.089 148.884ZM208.417 147.876V148.376H222.433V147.876V147.376H208.417V147.876ZM222.433 147.876V148.376C224.634 148.376 226.284 148.707 227.428 149.324L227.665 148.884L227.902 148.443C226.551 147.716 224.713 147.376 222.433 147.376V147.876ZM227.665 148.884L227.442 149.331C228.617 149.918 229.424 150.788 229.889 151.949L230.353 151.764L230.818 151.578C230.258 150.18 229.274 149.129 227.889 148.436L227.665 148.884ZM230.353 151.764L229.895 151.963C230.403 153.13 230.669 154.609 230.669 156.42H231.169H231.669C231.669 154.518 231.391 152.893 230.812 151.564L230.353 151.764ZM231.169 156.42H230.669V167.508H231.169H231.669V156.42H231.169ZM231.169 167.508H230.669C230.669 170.258 230.059 172.268 228.916 173.616L229.297 173.94L229.679 174.263C231.032 172.667 231.669 170.389 231.669 167.508H231.169ZM229.297 173.94L228.919 173.612C227.818 174.884 225.719 175.6 222.433 175.6V176.1V176.6C225.804 176.6 228.281 175.876 229.675 174.267L229.297 173.94ZM222.433 176.1V175.6H208.417V176.1V176.6H222.433V176.1ZM209.809 171.492V171.992H221.089V171.492V170.992H209.809V171.492ZM221.089 171.492V171.992C222.357 171.992 223.409 171.665 224.17 170.942L223.825 170.58L223.481 170.217C222.962 170.71 222.19 170.992 221.089 170.992V171.492ZM223.825 170.58L224.161 170.95C224.955 170.232 225.333 169.255 225.333 168.084H224.833H224.333C224.333 169.024 224.04 169.712 223.49 170.209L223.825 170.58ZM224.833 168.084H225.333V155.844H224.833H224.333V168.084H224.833ZM224.833 155.844H225.333C225.333 154.779 224.941 153.864 224.17 153.13L223.825 153.492L223.481 153.854C224.053 154.399 224.333 155.052 224.333 155.844H224.833ZM223.825 153.492L224.179 153.138C223.394 152.353 222.344 151.984 221.089 151.984V152.484V152.984C222.139 152.984 222.913 153.286 223.472 153.845L223.825 153.492ZM221.089 152.484V151.984H209.809V152.484V152.984H221.089V152.484ZM209.809 152.484V151.984C208.567 151.984 207.514 152.313 206.699 153.017L207.025 153.396L207.352 153.774C207.945 153.262 208.748 152.984 209.809 152.984V152.484ZM207.025 153.396L206.699 153.017C205.873 153.73 205.469 154.691 205.469 155.844H205.969H206.469C206.469 154.948 206.77 154.277 207.352 153.774L207.025 153.396ZM205.969 155.844H205.469V168.084H205.969H206.469V155.844H205.969ZM205.969 168.084H205.469C205.469 169.282 205.844 170.277 206.642 170.998L206.977 170.628L207.313 170.257C206.766 169.763 206.469 169.061 206.469 168.084H205.969ZM206.977 170.628L206.661 171.015C207.478 171.683 208.545 171.992 209.809 171.992V171.492V170.992C208.706 170.992 207.885 170.724 207.294 170.241L206.977 170.628ZM268.123 176.1H267.623V176.6H268.123V176.1ZM268.123 151.716H268.623V151.684L268.619 151.654L268.123 151.716ZM267.643 147.876V147.376H267.077L267.147 147.938L267.643 147.876ZM274.939 147.876L275.375 147.63L275.231 147.376H274.939V147.876ZM285.787 167.076L285.352 167.322L285.78 168.079L286.219 167.328L285.787 167.076ZM297.019 147.876V147.376H296.733L296.588 147.623L297.019 147.876ZM303.499 147.876H303.999V147.376H303.499V147.876ZM303.499 176.1V176.6H303.999V176.1H303.499ZM297.163 176.1H296.663V176.6H297.163V176.1ZM297.163 158.196H297.663V157.696H297.163V158.196ZM296.635 158.196V157.696H296.312L296.179 157.991L296.635 158.196ZM294.763 162.372L295.2 162.615L295.211 162.596L295.22 162.576L294.763 162.372ZM288.715 173.22V173.72H289.009L289.152 173.463L288.715 173.22ZM282.907 173.22L282.471 173.463L282.614 173.72H282.907V173.22ZM276.859 162.372L276.405 162.58L276.413 162.598L276.423 162.615L276.859 162.372ZM274.939 158.196L275.394 157.987L275.26 157.696H274.939V158.196ZM274.459 158.196V157.696H273.959V158.196H274.459ZM274.459 176.1V176.6H274.959V176.1H274.459ZM268.123 176.1H268.623V151.716H268.123H267.623V176.1H268.123ZM268.123 151.716L268.619 151.654L268.139 147.814L267.643 147.876L267.147 147.938L267.627 151.778L268.123 151.716ZM267.643 147.876V148.376H274.939V147.876V147.376H267.643V147.876ZM274.939 147.876L274.504 148.122L285.352 167.322L285.787 167.076L286.223 166.83L275.375 147.63L274.939 147.876ZM285.787 167.076L286.219 167.328L297.451 148.128L297.019 147.876L296.588 147.623L285.356 166.823L285.787 167.076ZM297.019 147.876V148.376H303.499V147.876V147.376H297.019V147.876ZM303.499 147.876H302.999V176.1H303.499H303.999V147.876H303.499ZM303.499 176.1V175.6H297.163V176.1V176.6H303.499V176.1ZM297.163 176.1H297.663V158.196H297.163H296.663V176.1H297.163ZM297.163 158.196V157.696H296.635V158.196V158.696H297.163V158.196ZM296.635 158.196L296.179 157.991L294.307 162.167L294.763 162.372L295.22 162.576L297.092 158.4L296.635 158.196ZM294.763 162.372L294.327 162.128L288.279 172.976L288.715 173.22L289.152 173.463L295.2 162.615L294.763 162.372ZM288.715 173.22V172.72H282.907V173.22V173.72H288.715V173.22ZM282.907 173.22L283.344 172.976L277.296 162.128L276.859 162.372L276.423 162.615L282.471 173.463L282.907 173.22ZM276.859 162.372L277.314 162.163L275.394 157.987L274.939 158.196L274.485 158.404L276.405 162.58L276.859 162.372ZM274.939 158.196V157.696H274.459V158.196V158.696H274.939V158.196ZM274.459 158.196H273.959V176.1H274.459H274.959V158.196H274.459ZM274.459 176.1V175.6H268.123V176.1V176.6H274.459V176.1ZM336.63 176.1L336.183 175.877L335.822 176.6H336.63V176.1ZM350.694 147.876V147.376H350.385L350.247 147.653L350.694 147.876ZM360.15 147.876L360.598 147.653L360.46 147.376H360.15V147.876ZM374.166 176.1V176.6H374.973L374.614 175.877L374.166 176.1ZM366.774 176.1L366.321 176.31L366.455 176.6H366.774V176.1ZM363.942 170.004L364.396 169.793L364.261 169.504H363.942V170.004ZM346.758 170.004V169.504H346.452L346.313 169.776L346.758 170.004ZM343.638 176.1V176.6H343.944L344.083 176.327L343.638 176.1ZM348.486 165.3L348.04 165.074L347.673 165.8H348.486V165.3ZM362.166 165.3V165.8H362.977L362.613 165.075L362.166 165.3ZM355.59 152.196L356.037 151.971L355.899 151.696H355.59V152.196ZM355.11 152.196V151.696H354.803L354.664 151.97L355.11 152.196ZM336.63 176.1L337.078 176.323L351.142 148.099L350.694 147.876L350.247 147.653L336.183 175.877L336.63 176.1ZM350.694 147.876V148.376H360.15V147.876V147.376H350.694V147.876ZM360.15 147.876L359.702 148.098L373.718 176.322L374.166 176.1L374.614 175.877L360.598 147.653L360.15 147.876ZM374.166 176.1V175.6H366.774V176.1V176.6H374.166V176.1ZM366.774 176.1L367.228 175.889L364.396 169.793L363.942 170.004L363.489 170.214L366.321 176.31L366.774 176.1ZM363.942 170.004V169.504H346.758V170.004V170.504H363.942V170.004ZM346.758 170.004L346.313 169.776L343.193 175.872L343.638 176.1L344.083 176.327L347.203 170.231L346.758 170.004ZM343.638 176.1V175.6H336.63V176.1V176.6H343.638V176.1ZM348.486 165.3V165.8H362.166V165.3V164.8H348.486V165.3ZM362.166 165.3L362.613 165.075L356.037 151.971L355.59 152.196L355.143 152.42L361.719 165.524L362.166 165.3ZM355.59 152.196V151.696H355.11V152.196V152.696H355.59V152.196ZM355.11 152.196L354.664 151.97L348.04 165.074L348.486 165.3L348.932 165.525L355.556 152.421L355.11 152.196ZM411.179 176.1L410.679 176.101L410.68 176.6H411.179V176.1ZM411.131 152.436L411.631 152.435L411.63 151.936H411.131V152.436ZM398.651 152.436H398.151V152.936H398.651V152.436ZM398.651 147.828V147.328H398.151V147.828H398.651ZM430.043 147.828H430.543V147.328H430.043V147.828ZM430.043 152.436V152.936H430.543V152.436H430.043ZM417.515 152.436V151.936H417.015V152.436H417.515ZM417.515 176.1V176.6H418.015V176.1H417.515ZM411.179 176.1L411.679 176.099L411.631 152.435L411.131 152.436L410.631 152.437L410.679 176.101L411.179 176.1ZM411.131 152.436V151.936H398.651V152.436V152.936H411.131V152.436ZM398.651 152.436H399.151V147.828H398.651H398.151V152.436H398.651ZM398.651 147.828V148.328H430.043V147.828V147.328H398.651V147.828ZM430.043 147.828H429.543V152.436H430.043H430.543V147.828H430.043ZM430.043 152.436V151.936H417.515V152.436V152.936H430.043V152.436ZM417.515 152.436H417.015V176.1H417.515H418.015V152.436H417.515ZM417.515 176.1V175.6H411.179V176.1V176.6H417.515V176.1ZM464.14 176.1H463.64V176.6H464.14V176.1ZM464.14 147.876V147.376H463.64V147.876H464.14ZM470.476 147.876H470.976V147.376H470.476V147.876ZM470.476 176.1V176.6H470.976V176.1H470.476ZM464.14 176.1H464.64V147.876H464.14H463.64V176.1H464.14ZM464.14 147.876V148.376H470.476V147.876V147.376H464.14V147.876ZM470.476 147.876H469.976V176.1H470.476H470.976V147.876H470.476ZM470.476 176.1V175.6H464.14V176.1V176.6H470.476V176.1ZM510.459 175.14L510.236 175.587V175.587L510.459 175.14ZM507.723 172.26L507.259 172.445L507.263 172.455L507.723 172.26ZM507.723 151.764L508.186 151.953L508.187 151.949L507.723 151.764ZM510.411 148.884L510.635 149.331L510.644 149.326L510.411 148.884ZM534.987 148.884L534.75 149.324L534.757 149.327L534.764 149.331L534.987 148.884ZM537.675 151.764L537.211 151.949L537.214 151.956L537.217 151.963L537.675 151.764ZM536.619 173.94L536.997 174.267L537.001 174.263L536.619 173.94ZM531.147 170.58L530.812 170.209L530.803 170.217L531.147 170.58ZM531.147 153.492L530.794 153.845L530.802 153.854L531.147 153.492ZM514.299 170.628L513.964 170.998L513.973 171.007L513.983 171.015L514.299 170.628ZM515.739 176.1V175.6C513.537 175.6 511.865 175.284 510.683 174.692L510.459 175.14L510.236 175.587C511.613 176.276 513.461 176.6 515.739 176.6V176.1ZM510.459 175.14L510.683 174.692C509.506 174.104 508.679 173.231 508.183 172.064L507.723 172.26L507.263 172.455C507.855 173.848 508.853 174.895 510.236 175.587L510.459 175.14ZM507.723 172.26L508.187 172.074C507.706 170.87 507.455 169.354 507.455 167.508H506.955H506.455C506.455 169.437 506.716 171.089 507.259 172.445L507.723 172.26ZM506.955 167.508H507.455V156.42H506.955H506.455V167.508H506.955ZM506.955 156.42H507.455C507.455 154.606 507.706 153.123 508.186 151.953L507.723 151.764L507.261 151.574C506.716 152.9 506.455 154.521 506.455 156.42H506.955ZM507.723 151.764L508.187 151.949C508.652 150.788 509.46 149.918 510.635 149.331L510.411 148.884L510.188 148.436C508.803 149.129 507.818 150.18 507.259 151.578L507.723 151.764ZM510.411 148.884L510.644 149.326C511.822 148.707 513.506 148.376 515.739 148.376V147.876V147.376C513.428 147.376 511.56 147.716 510.179 148.441L510.411 148.884ZM515.739 147.876V148.376H529.755V147.876V147.376H515.739V147.876ZM529.755 147.876V148.376C531.956 148.376 533.605 148.707 534.75 149.324L534.987 148.884L535.224 148.443C533.873 147.716 532.035 147.376 529.755 147.376V147.876ZM534.987 148.884L534.764 149.331C535.939 149.918 536.746 150.788 537.211 151.949L537.675 151.764L538.139 151.578C537.58 150.18 536.596 149.129 535.211 148.436L534.987 148.884ZM537.675 151.764L537.217 151.963C537.725 153.13 537.991 154.609 537.991 156.42H538.491H538.991C538.991 154.518 538.713 152.893 538.134 151.564L537.675 151.764ZM538.491 156.42H537.991V167.508H538.491H538.991V156.42H538.491ZM538.491 167.508H537.991C537.991 170.258 537.381 172.268 536.238 173.616L536.619 173.94L537.001 174.263C538.354 172.667 538.991 170.389 538.991 167.508H538.491ZM536.619 173.94L536.241 173.612C535.139 174.884 533.041 175.6 529.755 175.6V176.1V176.6C533.126 176.6 535.603 175.876 536.997 174.267L536.619 173.94ZM529.755 176.1V175.6H515.739V176.1V176.6H529.755V176.1ZM517.131 171.492V171.992H528.411V171.492V170.992H517.131V171.492ZM528.411 171.492V171.992C529.679 171.992 530.731 171.665 531.492 170.942L531.147 170.58L530.803 170.217C530.284 170.71 529.512 170.992 528.411 170.992V171.492ZM531.147 170.58L531.483 170.95C532.277 170.232 532.655 169.255 532.655 168.084H532.155H531.655C531.655 169.024 531.361 169.712 530.812 170.209L531.147 170.58ZM532.155 168.084H532.655V155.844H532.155H531.655V168.084H532.155ZM532.155 155.844H532.655C532.655 154.779 532.263 153.864 531.492 153.13L531.147 153.492L530.802 153.854C531.375 154.399 531.655 155.052 531.655 155.844H532.155ZM531.147 153.492L531.501 153.138C530.716 152.353 529.666 151.984 528.411 151.984V152.484V152.984C529.461 152.984 530.235 153.286 530.794 153.845L531.147 153.492ZM528.411 152.484V151.984H517.131V152.484V152.984H528.411V152.484ZM517.131 152.484V151.984C515.889 151.984 514.835 152.313 514.02 153.017L514.347 153.396L514.674 153.774C515.267 153.262 516.07 152.984 517.131 152.984V152.484ZM514.347 153.396L514.02 153.017C513.195 153.73 512.791 154.691 512.791 155.844H513.291H513.791C513.791 154.948 514.092 154.277 514.674 153.774L514.347 153.396ZM513.291 155.844H512.791V168.084H513.291H513.791V155.844H513.291ZM513.291 168.084H512.791C512.791 169.282 513.166 170.277 513.964 170.998L514.299 170.628L514.635 170.257C514.088 169.763 513.791 169.061 513.791 168.084H513.291ZM514.299 170.628L513.983 171.015C514.8 171.683 515.867 171.992 517.131 171.992V171.492V170.992C516.027 170.992 515.207 170.724 514.616 170.241L514.299 170.628ZM575.445 176.1H574.945V176.6H575.445V176.1ZM575.445 151.716H575.945V151.684L575.941 151.654L575.445 151.716ZM574.965 147.876V147.376H574.399L574.469 147.938L574.965 147.876ZM581.877 147.876L582.239 147.53L582.091 147.376H581.877V147.876ZM598.197 164.964L598.603 164.671L598.583 164.643L598.559 164.618L598.197 164.964ZM600.069 167.556L599.664 167.848L599.814 168.056H600.069V167.556ZM600.597 167.556V168.056H601.097V167.556H600.597ZM600.597 147.876V147.376H600.097V147.876H600.597ZM606.933 147.876H607.433V147.376H606.933V147.876ZM606.933 176.1V176.6H607.433V176.1H606.933ZM600.837 176.1L600.477 176.446L600.624 176.6H600.837V176.1ZM584.133 158.724L583.748 159.043L583.76 159.057L583.773 159.07L584.133 158.724ZM582.261 156.468L582.646 156.148L582.496 155.968H582.261V156.468ZM581.781 156.468V155.968H581.281V156.468H581.781ZM581.781 176.1V176.6H582.281V176.1H581.781ZM575.445 176.1H575.945V151.716H575.445H574.945V176.1H575.445ZM575.445 151.716L575.941 151.654L575.461 147.814L574.965 147.876L574.469 147.938L574.949 151.778L575.445 151.716ZM574.965 147.876V148.376H581.877V147.876V147.376H574.965V147.876ZM581.877 147.876L581.516 148.221L597.836 165.309L598.197 164.964L598.559 164.618L582.239 147.53L581.877 147.876ZM598.197 164.964L597.792 165.256L599.664 167.848L600.069 167.556L600.475 167.263L598.603 164.671L598.197 164.964ZM600.069 167.556V168.056H600.597V167.556V167.056H600.069V167.556ZM600.597 167.556H601.097V147.876H600.597H600.097V167.556H600.597ZM600.597 147.876V148.376H606.933V147.876V147.376H600.597V147.876ZM606.933 147.876H606.433V176.1H606.933H607.433V147.876H606.933ZM606.933 176.1V175.6H600.837V176.1V176.6H606.933V176.1ZM600.837 176.1L601.198 175.753L584.494 158.377L584.133 158.724L583.773 159.07L600.477 176.446L600.837 176.1ZM584.133 158.724L584.518 158.404L582.646 156.148L582.261 156.468L581.876 156.787L583.748 159.043L584.133 158.724ZM582.261 156.468V155.968H581.781V156.468V156.968H582.261V156.468ZM581.781 156.468H581.281V176.1H581.781H582.281V156.468H581.781ZM581.781 176.1V175.6H575.445V176.1V176.6H581.781V176.1Z" fill="black"/>
</svg>
