<svg width="1839" height="2196" viewBox="0 0 1839 2196" fill="none" xmlns="http://www.w3.org/2000/svg">
<path d="M1838.5 642.176L1838.5 1111.11L1449.47 847.332C1449.47 847.332 1502.52 568.906 1378.73 437.02C1254.95 305.134 1078.12 261.173 918.968 261.173C759.82 261.173 547.618 334.442 423.835 495.636C300.052 656.83 397.998 764.744 441.518 818.024C485.038 871.303 1148.85 1345.57 1148.85 1345.57C1148.85 1345.57 1325.68 1448.15 1308 1550.72C1290.32 1653.3 1148.85 1755.88 1148.85 1755.88C1148.85 1755.88 644.196 1374.88 317.735 1140.41C-8.72603 905.949 -60.9428 671.485 60.3146 437.02C181.572 202.556 423.835 99.9802 547.618 56.0179C671.401 12.0557 936.651 -49.7462 1308 70.672C1679.35 191.09 1838.5 480.981 1838.5 642.176Z" fill="white"/>
<path d="M0.501169 1553.82L0.5 1084.89L368.1 1377.98C368.1 1377.98 336.484 1627.09 460.267 1758.98C584.05 1890.87 760.883 1934.83 920.031 1934.83C1079.18 1934.83 1291.38 1861.56 1415.16 1700.36C1538.95 1539.17 1441 1431.26 1397.48 1377.98C1353.96 1324.7 690.15 850.432 690.15 850.432C690.15 850.432 513.317 747.854 531 645.276C548.683 542.698 690.15 440.12 690.15 440.12C690.15 440.12 1194.8 821.123 1521.26 1055.59C1847.73 1290.05 1899.94 1524.52 1778.69 1758.98C1657.43 1993.44 1415.17 2096.02 1291.38 2139.98C1167.6 2183.94 902.349 2245.75 531 2125.33C159.651 2004.91 0.501169 1715.02 0.501169 1553.82Z" fill="#EA8125"/>
<path d="M1838.5 642.176L1838.5 1111.11L1449.47 847.332C1449.47 847.332 1502.52 568.906 1378.73 437.02C1254.95 305.134 1078.12 261.173 918.968 261.173C759.82 261.173 547.618 334.442 423.835 495.636C300.052 656.83 397.998 764.744 441.518 818.024C485.038 871.303 1148.85 1345.57 1148.85 1345.57C1148.85 1345.57 1325.68 1448.15 1308 1550.72C1290.32 1653.3 1148.85 1755.88 1148.85 1755.88C1148.85 1755.88 644.196 1374.88 317.735 1140.41C-8.72603 905.949 -60.9428 671.485 60.3146 437.02C181.572 202.556 423.835 99.9802 547.618 56.0179C671.401 12.0557 936.651 -49.7462 1308 70.672C1679.35 191.09 1838.5 480.981 1838.5 642.176Z" stroke="#333333"/>
<path d="M0.501169 1553.82L0.5 1084.89L368.1 1377.98C368.1 1377.98 336.484 1627.09 460.267 1758.98C584.05 1890.87 760.883 1934.83 920.031 1934.83C1079.18 1934.83 1291.38 1861.56 1415.16 1700.36C1538.95 1539.17 1441 1431.26 1397.48 1377.98C1353.96 1324.7 690.15 850.432 690.15 850.432C690.15 850.432 513.317 747.854 531 645.276C548.683 542.698 690.15 440.12 690.15 440.12C690.15 440.12 1194.8 821.123 1521.26 1055.59C1847.73 1290.05 1899.94 1524.52 1778.69 1758.98C1657.43 1993.44 1415.17 2096.02 1291.38 2139.98C1167.6 2183.94 902.349 2245.75 531 2125.33C159.651 2004.91 0.501169 1715.02 0.501169 1553.82Z" stroke="#333333"/>
</svg>
