<svg width="96" height="115" viewBox="0 0 96 115" fill="none" xmlns="http://www.w3.org/2000/svg">
<path d="M95.5 33.6719L95.5001 57.9136L75.3923 44.2776C75.3923 44.2776 78.1342 29.8842 71.7363 23.0663C65.3384 16.2483 56.1985 13.9757 47.9726 13.9757C39.7468 13.9757 28.7788 17.7634 22.3808 26.0965C15.9829 34.4295 21.0454 40.0082 23.2948 42.7625C25.5442 45.5168 59.8544 70.0344 59.8544 70.0344C59.8544 70.0344 68.9943 75.3372 68.0803 80.64C67.1663 85.9429 59.8544 91.2457 59.8544 91.2457C59.8544 91.2457 33.7706 71.5495 16.8969 59.4287C0.023201 47.3079 -2.6757 35.1871 3.59167 23.0663C9.85906 10.9455 22.3808 5.64274 28.7787 3.37007C35.1767 1.09741 48.8865 -2.09749 68.0803 4.12762C87.2741 10.3527 95.5 25.3389 95.5 33.6719Z" stroke="black"/>
<path d="M0.500117 80.8003L0.500061 56.5586L19.5001 71.7097C19.5001 71.7097 17.8659 84.5881 24.2639 91.406C30.6618 98.2239 39.8017 100.497 48.0275 100.497C56.2534 100.497 67.2214 96.7089 73.6193 88.3758C80.0173 80.0428 74.9548 74.464 72.7053 71.7097C70.4559 68.9554 36.1457 44.4379 36.1457 44.4379C36.1457 44.4379 27.0058 39.1351 27.9198 33.8322C28.8338 28.5294 36.1457 23.2265 36.1457 23.2265C36.1457 23.2265 62.2296 42.9228 79.1033 55.0436C95.9769 67.1643 98.6759 79.2852 92.4085 91.406C86.1411 103.527 73.6193 108.83 67.2214 111.102C60.8235 113.375 47.1136 116.57 27.9198 110.345C8.72603 104.12 0.500117 89.1334 0.500117 80.8003Z" stroke="black"/>
</svg>
