<svg width="21" height="34" viewBox="0 0 21 34" fill="none" xmlns="http://www.w3.org/2000/svg">
<path fill-rule="evenodd" clip-rule="evenodd" d="M12.9502 7.22074C12.9534 7.22446 12.958 7.22996 12.9639 7.23689C12.976 7.251 12.9935 7.27195 13.0154 7.29844C13.0594 7.3515 13.1222 7.42831 13.197 7.52456C13.3464 7.71693 13.5458 7.98821 13.7457 8.30282C13.9452 8.61686 14.1478 8.9785 14.3011 9.35153C14.4534 9.72225 14.5635 10.1195 14.5631 10.5008C14.5628 10.9076 14.3733 11.3461 14.1107 11.7702C13.8437 12.2015 13.4792 12.6522 13.084 13.0888C12.2944 13.9612 11.3555 14.8067 10.7744 15.359C9.60154 16.4737 6.67212 19.3694 5.11312 21.1474C4.39394 21.9676 4.20221 23.2755 4.41897 24.6383C4.63511 25.9969 5.25076 27.3565 6.07858 28.2311C6.90064 29.0995 8.02851 29.535 9.12989 29.6681C10.2329 29.8013 11.2812 29.6276 11.9281 29.3115C12.5949 28.9858 13.5026 28.3779 14.2404 27.5552C14.9796 26.7309 15.5271 25.716 15.5282 24.5722L15.532 20.2436L20.0312 16.8228L20.0244 24.5761C20.0211 28.2625 17.6056 31.0019 15.8121 32.1381C14.027 33.269 12.0344 34.1754 8.66642 33.9461C5.26673 33.7146 2.27579 31.201 0.882164 27.7807C-0.507452 24.3701 -0.120037 20.9295 1.10595 19.0653C1.41296 18.5986 2.2975 17.6202 3.42929 16.4335C4.56834 15.2392 5.97632 13.8154 7.34636 12.4482C8.71659 11.0808 10.0501 9.76901 11.0409 8.79946C11.5362 8.31476 11.9461 7.91526 12.232 7.63713C12.3749 7.49812 12.4871 7.3895 12.5634 7.31549C12.6014 7.27856 12.6304 7.25001 12.6501 7.23094C12.6599 7.22146 12.6677 7.21443 12.6726 7.20959C12.6751 7.20718 12.6771 7.20514 12.6784 7.20392L12.6799 7.20218L12.8175 7.06882L12.9502 7.22074ZM12.4853 7.9776C12.1996 8.25552 11.7899 8.65468 11.2949 9.13906C10.3047 10.108 8.97229 11.4183 7.6034 12.7843C6.23428 14.1506 4.82953 15.572 3.69398 16.7626C2.55133 17.9607 1.69915 18.9073 1.4188 19.3334C0.295877 21.0407 -0.104606 24.3002 1.23665 27.5922C2.57402 30.8743 5.44342 33.2792 8.68972 33.5003C11.9677 33.7235 13.8866 32.8466 15.6223 31.7471C17.3494 30.653 19.6303 28.0363 19.6334 24.5758L19.6395 17.6574L15.9228 20.483L15.9191 24.5725C15.918 25.8853 15.2907 27.0085 14.5135 27.8752C13.7348 28.7433 12.7842 29.3795 12.082 29.7226C11.36 30.0753 10.2414 30.2518 9.08864 30.1125C7.93411 29.9731 6.71652 29.5131 5.81332 28.5589C4.91593 27.6108 4.26343 26.1603 4.03403 24.7182C3.80529 23.2802 3.99069 21.7965 4.83697 20.8314C6.40887 19.0387 9.34914 16.1327 10.5242 15.016C11.1169 14.4526 12.0367 13.6246 12.8125 12.7675C13.1999 12.3395 13.5449 11.9112 13.7918 11.5125C14.0431 11.1066 14.1719 10.7636 14.1722 10.5004C14.1724 10.2117 14.0876 9.88278 13.9474 9.54141C13.8081 9.20237 13.6202 8.86557 13.4293 8.56514C13.2389 8.26537 13.0477 8.00569 12.9042 7.82093C12.8624 7.76703 12.8241 7.72 12.7917 7.67993C12.7169 7.75262 12.6134 7.85296 12.4853 7.9776Z" fill="#3D3D3D"/>
<path fill-rule="evenodd" clip-rule="evenodd" d="M4.22448 1.84367C6.00956 0.712841 8.00205 -0.193591 11.3701 0.0357465C14.7698 0.267245 17.7608 2.7808 19.1544 6.2011C20.544 9.61173 20.1566 13.0523 18.9306 14.9165C18.6236 15.3833 17.739 16.3616 16.6073 17.5483C15.4682 18.7426 14.0602 20.1664 12.6902 21.5336C11.3199 22.901 9.98642 24.2128 8.99563 25.1824C8.5003 25.6671 8.09043 26.0666 7.8045 26.3447C7.6616 26.4837 7.54945 26.5923 7.47319 26.6663C7.43513 26.7033 7.40612 26.7318 7.38644 26.7509C7.37665 26.7604 7.36889 26.7674 7.3639 26.7722C7.36141 26.7746 7.35942 26.7767 7.35817 26.7779L7.35664 26.7796L7.21907 26.913L7.08633 26.7611C7.08312 26.7574 7.07854 26.7519 7.0726 26.7449C7.06057 26.7308 7.04311 26.7099 7.02111 26.6834C6.97711 26.6303 6.91434 26.5535 6.83957 26.4573C6.69018 26.2649 6.49073 25.9936 6.29083 25.679C6.09131 25.365 5.88874 25.0033 5.73546 24.6303C5.58314 24.2596 5.47308 23.8623 5.4734 23.4811C5.47376 23.0743 5.66328 22.6358 5.92582 22.2116C6.19285 21.7803 6.55733 21.3296 6.95252 20.893C7.74211 20.0206 8.68101 19.1751 9.26219 18.6228C10.435 17.5081 13.3644 14.6124 14.9234 12.8344C15.6426 12.0142 15.8343 10.7063 15.6176 9.34353C15.4014 7.98489 14.7858 6.62531 13.958 5.75071C13.1359 4.88222 12.0081 4.44681 10.9067 4.31374C9.80365 4.18051 8.75536 4.35424 8.10844 4.67028C7.44168 4.99603 6.534 5.60393 5.79617 6.42663C5.05697 7.2509 4.50938 8.26578 4.50837 9.40964L4.50456 13.7382L0.00534529 17.159L0.0121791 9.40568C0.0154283 5.71931 2.43096 2.97987 4.22448 1.84367ZM11.3468 0.481538C8.06877 0.258325 6.14992 1.13518 4.41428 2.23469C2.68708 3.32886 0.406202 5.94549 0.403152 9.40602L0.397054 16.3244L4.11379 13.4988L4.1174 9.4093C4.11856 8.09645 4.74583 6.97331 5.52308 6.10664C6.30173 5.23845 7.25234 4.6023 7.95455 4.25923C8.67656 3.90649 9.79506 3.73002 10.9479 3.86927C12.1025 4.00876 13.32 4.4687 14.2232 5.42291C15.1206 6.37099 15.7731 7.82153 16.0025 9.26361C16.2312 10.7016 16.0458 12.1853 15.1996 13.1505C13.6277 14.9431 10.6874 17.8491 9.51235 18.9659C8.91963 19.5292 7.99983 20.3572 7.22409 21.2143C6.83664 21.6424 6.49161 22.0706 6.24479 22.4693C5.99348 22.8752 5.86461 23.2182 5.86438 23.4814C5.86413 23.7702 5.94892 24.099 6.08918 24.4404C6.22849 24.7795 6.41632 25.1162 6.6072 25.4167C6.79767 25.7165 6.98881 25.9761 7.1323 26.1609C7.17417 26.2148 7.2124 26.2618 7.24481 26.3019C7.31969 26.2292 7.42315 26.1289 7.55128 26.0042C7.83698 25.7263 8.24665 25.3271 8.74164 24.8428C9.73183 23.8738 11.0643 22.5635 12.4331 21.1975C13.8023 19.8312 15.207 18.4098 16.3426 17.2192C17.4852 16.0211 18.3374 15.0745 18.6177 14.6484C19.7407 12.9411 20.1411 9.6816 18.7999 6.38967C17.4625 3.10747 14.5931 0.702602 11.3468 0.481538Z" fill="#3D3D3D"/>
</svg>
