<svg width="815" height="189" viewBox="0 0 815 189" fill="none" xmlns="http://www.w3.org/2000/svg">
<path d="M231.88 189H228.4L226.48 184.08H212.8L210.92 189H207.4L217.08 164.12H222.16L231.88 189ZM279.945 185.4C279.945 185.934 280.012 186.281 280.146 186.44C280.306 186.574 280.652 186.64 281.186 186.64H291.905C292.438 186.64 292.772 186.574 292.905 186.44C293.065 186.281 293.145 185.934 293.146 185.4V164.12H296.586V185.84C296.586 187.947 295.532 189 293.426 189H279.626C277.519 189 276.466 187.947 276.466 185.84V164.12H279.945V185.4ZM361.971 166.481H352.811V189H349.33V166.481H340.17V164.12H361.971V166.481ZM421.827 164.12C423.934 164.12 424.987 165.174 424.987 167.28V185.84C424.987 187.947 423.934 189 421.827 189H408.747C406.641 189 405.588 187.946 405.588 185.84V167.28C405.588 165.174 406.641 164.12 408.747 164.12H421.827ZM485.229 180.561L494.869 164.12H498.669V189H495.629V168.601L486.869 183.601H483.669L475.229 168.601V189H472.189V164.12H475.989L485.229 180.561ZM568.161 189H564.682L562.762 184.08H549.081L547.201 189H543.682L553.361 164.12H558.441L568.161 189ZM631.347 166.481H622.187V189H618.707V166.481H609.547V164.12H631.347V166.481ZM679.284 189H675.764V164.12H679.284V189ZM743.108 164.12C745.215 164.12 746.269 165.174 746.269 167.28V185.84C746.269 187.947 745.215 189 743.108 189H730.028C727.922 189 726.869 187.946 726.869 185.84V167.28C726.869 165.174 727.922 164.12 730.028 164.12H743.108ZM811.03 184.68V164.12H814.23V189H810.71L796.67 168.24V189H793.471V164.12H797.19L811.03 184.68ZM410.308 166.481C409.775 166.481 409.428 166.56 409.268 166.72C409.134 166.853 409.067 167.187 409.067 167.72V185.4C409.067 185.934 409.134 186.281 409.268 186.44C409.428 186.574 409.775 186.64 410.308 186.64H420.308C420.841 186.64 421.174 186.574 421.308 186.44C421.468 186.281 421.548 185.934 421.548 185.4V167.72C421.548 167.187 421.468 166.853 421.308 166.72C421.174 166.56 420.841 166.481 420.308 166.481H410.308ZM731.589 166.481C731.056 166.481 730.709 166.56 730.549 166.72C730.416 166.853 730.349 167.187 730.349 167.72V185.4C730.349 185.934 730.416 186.281 730.549 186.44C730.709 186.574 731.056 186.64 731.589 186.64H741.589C742.122 186.64 742.455 186.574 742.589 186.44C742.749 186.281 742.829 185.934 742.829 185.4V167.72C742.829 167.187 742.749 166.853 742.589 166.72C742.455 166.56 742.122 166.481 741.589 166.481H731.589ZM213.72 181.72H225.56L219.6 166.521L213.72 181.72ZM550.001 181.72H561.841L555.881 166.521L550.001 181.72ZM182 179H176V6.10352e-05H182V179ZM82.3711 38.9473C82.3711 38.9473 99.3624 53.2564 89.6465 62.668C79.9301 72.0798 52.3613 92.7005 34.7959 107.392C17.2303 122.083 22.2566 143.883 48.8682 155.063C75.4797 166.242 103.001 149.361 104.532 132.527C106.064 115.694 104.819 110.797 104.819 110.797L131 91.5909C130.713 102.762 131 116.804 131 126.713C131 136.622 124.969 165.66 79.6914 176.105C34.4134 186.549 0.000192191 151.466 0 128.702C5.69721e-05 105.939 8.42408 99.9312 15.8428 93.1212C23.2533 86.3189 82.2092 39.0771 82.3711 38.9473ZM51.3086 1.89557C96.5864 -8.54894 131 26.534 131 49.2979C131 72.0617 122.576 78.069 115.157 84.879C107.743 91.6848 48.722 138.977 48.6279 139.053C48.531 138.971 31.6653 124.717 41.3535 115.332C51.07 105.92 78.6387 85.2996 96.2041 70.6085C113.77 55.9171 108.743 34.1171 82.1318 22.9376C55.5207 11.7587 28 28.6383 26.4678 45.4717C24.942 62.2409 26.1712 67.1656 26.1807 67.2032L0 86.4092C0.287166 75.2379 -2.18241e-07 61.196 0 51.2872C0.000214003 41.3777 6.03137 12.34 51.3086 1.89557ZM308.06 2.37994C319.119 2.37994 324.65 7.91005 324.65 18.9698V39.7598H306.17V21.2803C306.17 18.4805 305.75 16.7304 304.91 16.0303C304.21 15.1904 302.46 14.7706 299.66 14.7706H247.79C245.13 14.7706 243.38 15.1903 242.54 16.0303C241.7 16.7304 241.28 18.4804 241.28 21.2803V54.46C241.28 57.2599 241.7 59.08 242.54 59.92C243.38 60.62 245.13 60.9698 247.79 60.9698H308.69C319.75 60.9699 325.28 66.5007 325.28 77.5606V116.41C325.28 127.47 319.75 133 308.69 133H239.81C228.75 133 223.22 127.47 223.22 116.41V95.6202H241.7V114.101C241.7 116.9 242.12 118.721 242.96 119.561C243.8 120.261 245.55 120.61 248.21 120.61H300.5C303.3 120.61 305.05 120.26 305.75 119.561C306.59 118.721 307.01 116.9 307.01 114.101V79.8702C307.01 77.2102 306.59 75.4602 305.75 74.6202C305.05 73.7802 303.3 73.3604 300.5 73.3604H239.39C228.33 73.3603 222.8 67.8302 222.8 56.7706V18.9698C222.8 7.91016 228.33 2.38006 239.39 2.37994H308.06ZM383.752 133H365.271V2.37994H383.752V133ZM446.041 120.61H513.661V133H427.771V2.37994H446.041V120.61ZM592.005 120.4L638.205 2.37994H656.475L605.444 133H578.774L527.955 2.37994H546.435L592.005 120.4ZM800.425 133H782.154L772.074 107.17H700.255L690.385 133H671.904L722.725 2.37994H749.395L800.425 133ZM705.085 94.7803H767.245L735.955 14.9805L705.085 94.7803Z" fill="white"/>
</svg>
